<svg width="334" height="102" viewBox="0 0 334 102" fill="none" xmlns="http://www.w3.org/2000/svg">
<g filter="url(#filter0_d_29_288)">
<rect x="92" y="27" width="238" height="56" rx="9" fill="white"/>
<rect x="92.25" y="27.25" width="237.5" height="55.5" rx="8.75" stroke="#D2D2D2" stroke-width="0.5"/>
</g>
<path d="M108.644 27.561C107.671 27.6165 106.052 25.414 104.358 22.5105C104.158 22.1688 103.957 21.8153 103.76 21.459C100.732 16.0726 97.6689 9.07375 97.6689 9.07375L97.6457 9.03578C95.1379 2.77891 88.9163 0.386583 82.7326 1.13145C75.0988 2.03697 67.5231 7.72715 67.0698 16.8087V16.8145C67.064 17.1358 67.0523 17.4484 67.064 17.7638H67.0582V29.4246C66.9012 29.3954 66.7443 29.3633 66.5845 29.3458C64.9485 29.1384 63.2718 29.6086 61.9641 30.6485L4.73535 75.6997C6.41787 75.1038 8.0103 74.6218 9.51846 74.245C10.4338 74.0201 11.3172 73.8244 12.1628 73.6725C14.6619 73.2227 16.8617 73.1 18.7331 73.246L20.0117 72.2412L20.1744 72.1127L20.9445 71.5051C21.854 71.5898 22.7665 71.6453 23.6818 71.6628C28.1249 71.7738 32.661 71.1458 36.7642 69.954C45.7172 67.3747 52.6623 62.1227 52.3659 55.9944C52.3659 53.5057 51.3198 51.1513 49.4542 49.0628L49.6896 48.8729L49.6954 48.867C49.6954 48.867 50.6224 48.0199 52.0085 46.7551L52.0521 46.7172C55.8908 43.2178 63.1788 36.6075 64.1116 35.9502C64.8206 35.4507 66.6484 35.109 66.7211 36.292C66.7385 36.5227 66.6833 36.8148 66.5467 37.1741C66.2997 37.808 64.3179 40.8546 63.6118 43.5332C63.1933 45.023 63.7687 46.7464 64.9136 47.6723C64.9688 47.722 65.024 47.7687 65.0821 47.8126C65.2943 47.9703 65.5122 48.1047 65.7476 48.2215C65.9946 48.35 69.4904 49.6645 70.7603 50.3948C72.3411 51.309 73.9451 52.384 75.276 53.6254L75.215 53.5641C76.9237 55.2437 79.199 54.7091 80.373 53.272C81.2273 52.2438 81.5237 50.7599 80.6636 49.2789C80.6636 49.2789 80.6597 49.275 80.652 49.2672C80.373 48.8057 79.0305 47.6431 79.0247 47.6431C76.79 45.5984 74.1689 43.9626 71.3008 42.8585C71.3066 42.8526 71.3124 42.8468 71.3124 42.841C72.9891 39.8089 73.9451 36.33 73.9451 32.6173C73.9451 32.1061 73.6545 16.3501 73.6836 16.1076C74.1079 10.7271 78.7747 7.41168 83.5026 7.26563L83.5085 7.25979C86.5364 7.16339 89.5818 8.36102 91.5607 11.1418C93.5948 14.2703 96.4949 19.5632 98.9417 23.7081C99.674 24.9554 100.366 26.1005 100.982 27.0498C100.685 26.933 91.738 23.3138 88.3642 22.8581C88.1521 22.8289 87.9632 22.8085 87.8005 22.8085C84.0112 22.7647 80.96 25.9486 80.9716 29.6729L80.7711 43.9918C80.7711 44.2489 80.7827 44.4972 80.8205 44.7396C81.0268 46.5098 81.9712 48.0638 83.3399 49.0657L83.3457 49.0715C83.4416 49.1387 83.831 49.387 83.9385 49.4483C84.4354 49.7843 84.9004 50.1669 85.3305 50.5875C87.0391 52.2496 88.1928 54.5193 88.4979 56.9846C88.588 57.6711 88.6083 58.3779 88.5531 59.0907H88.5473C85.4467 58.007 81.8405 57.3936 77.9814 57.3936C76.0752 57.3936 74.1921 57.5571 72.3818 57.8609C61.8653 59.6077 53.8363 66.1245 58.355 74.134L55.606 74.8409L51.4419 75.9129C50.5294 76.1369 49.9385 76.5361 49.6693 77.1106L48.0042 81.6995L46.8302 84.9419C46.8302 84.9419 40.1466 79.9323 40.0914 79.8914C39.856 79.722 39.7049 79.611 39.5451 79.5496C39.272 79.4474 38.9872 79.5204 38.1997 79.7132C38.1997 79.7132 34.1605 80.8816 29.1798 82.3246C27.7878 82.7277 26.3233 83.1454 24.85 83.5719C24.8006 83.6566 24.7483 83.7472 24.6873 83.8348C22.8478 86.8522 19.323 90.2319 13.9296 93.5648L18.6953 92.2211L38.6879 86.5601L38.8768 86.7062L40.5912 88.0382C40.5912 88.0382 40.597 88.044 40.6029 88.0499L45.2697 91.6895L45.4267 92.2561H45.4325L46.1357 94.7449L46.1415 94.7741C42.2534 95.3641 42.5702 101.06 46.6442 101.116H58.0993C59.1163 101.086 59.8922 100.701 60.4124 100.128C62.0339 98.364 61.2725 94.8471 58.0993 94.742H54.031L51.6889 89.782C52.1625 88.6311 54.2984 83.4288 54.8127 82.1756L65.1403 79.462H65.1461C65.1461 79.462 65.1955 79.4503 65.2856 79.424C65.3466 79.4065 65.4192 79.386 65.5093 79.3627C68.3426 78.5828 86.8212 73.5148 86.9229 73.4768C89.945 72.5567 91.8803 70.5674 93.5658 68.0407C94.6322 66.4459 95.2744 64.8714 95.751 62.9581C96.091 61.6145 96.0968 58.8862 95.9515 57.4432C95.5592 53.4823 94.3765 50.7424 92.1506 47.8534C90.9999 46.3433 88.0271 43.9539 88.0271 43.9539V30.6807C88.0271 30.0176 88.5589 29.4275 89.2069 29.4889C89.7765 29.5444 90.8778 29.8306 92.2145 30.2367C96.0648 31.3934 101.842 33.479 102.391 33.5725C104.129 33.8646 105.637 33.4031 106.817 32.6173C109.493 30.853 110.478 27.45 108.65 27.5552L108.644 27.561ZM21.1711 73.6375C20.433 73.4476 19.6223 73.3161 18.7302 73.249L8.31542 81.4454C5.95292 83.5398 7.5163 87.6643 10.707 87.6175C10.7506 87.6175 12.1715 87.2144 14.3452 86.5952C17.0709 85.8153 20.9793 84.6907 24.8442 83.5777C27.6425 78.7756 26.1518 74.9169 21.1682 73.6404L21.1711 73.6375Z" fill="#F08F34" stroke="white" stroke-miterlimit="10" stroke-linecap="round"/>
<path d="M108.644 27.561C107.671 27.6165 106.052 25.414 104.358 22.5105C104.158 22.1688 103.957 21.8153 103.76 21.459C100.732 16.0726 97.6688 9.07375 97.6688 9.07375L97.6455 9.03578C95.1377 2.77891 88.9162 0.386583 82.7325 1.13145C75.0987 2.03697 67.523 7.72715 67.0697 16.8087V16.8145C67.0639 17.1358 67.0522 17.4484 67.0639 17.7638H67.0581V29.4246C66.9011 29.3954 66.7442 29.3633 66.5844 29.3458C64.9484 29.1384 63.2717 29.6086 61.964 30.6485L4.73527 75.6997C-3.68603 82.8884 3.32591 96.0447 13.9266 93.5677L18.6923 92.224L38.6849 86.563L38.8737 86.7091L40.5882 88.0411C40.5882 88.0411 40.594 88.0469 40.5999 88.0528L45.2667 91.6924L45.4236 92.2591H45.4295L46.1327 94.7478L46.1385 94.777C42.2504 95.3671 42.5672 101.063 46.6412 101.119H58.0963C59.1133 101.089 59.8892 100.704 60.4094 100.131C62.0308 98.367 61.2695 94.85 58.0963 94.7449H54.028L51.6859 89.785C52.1595 88.6341 54.2953 83.4317 54.8097 82.1786L65.1373 79.4649H65.1431C65.1431 79.4649 65.1925 79.4532 65.2826 79.4269C65.3436 79.4094 65.4162 79.389 65.5063 79.3656C68.3396 78.5857 86.8182 73.5177 86.9199 73.4797C89.942 72.5596 91.8773 70.5704 93.5628 68.0437C94.6292 66.4488 95.2714 64.8743 95.748 62.9611C96.088 61.6174 96.0938 58.8891 95.9485 57.4461C95.5562 53.4852 94.3735 50.7453 92.1476 47.8564C90.9968 46.3462 88.0241 43.9568 88.0241 43.9568V30.6836C88.0241 30.0205 88.5559 29.4305 89.2039 29.4918C89.7735 29.5473 90.8748 29.8336 92.2115 30.2396C96.0618 31.3963 101.839 33.4819 102.388 33.5754C104.126 33.8675 105.634 33.406 106.814 32.6202C109.49 30.8559 110.475 27.4529 108.647 27.5581L108.644 27.561ZM88.3612 22.8581C88.1491 22.8289 87.9602 22.8085 87.7974 22.8085C84.0082 22.7647 80.957 25.9486 80.9686 29.6729L80.7681 43.9918C80.7681 44.2489 80.7797 44.4972 80.8175 44.7396C81.0238 46.5098 81.9682 48.0638 83.3369 49.0657L83.3427 49.0715C83.4386 49.1387 83.828 49.387 83.9355 49.4483C84.4324 49.7843 84.8974 50.1669 85.3274 50.5875C87.0361 52.2496 88.1897 54.5193 88.4949 56.9846C88.5849 57.6711 88.6053 58.3779 88.5501 59.0907H88.5443C85.4437 58.007 81.8374 57.3936 77.9784 57.3936C76.0722 57.3936 74.1891 57.5571 72.3788 57.8609C61.8623 59.6077 53.8333 66.1245 58.352 74.134L55.603 74.8409L51.4389 75.9129C50.5264 76.1369 49.9355 76.5361 49.6663 77.1106L48.0012 81.6995L46.8272 84.9419C46.8272 84.9419 40.1436 79.9323 40.0884 79.8914C39.853 79.722 39.7019 79.611 39.5421 79.5496C39.269 79.4474 38.9842 79.5204 38.1967 79.7132C38.1967 79.7132 34.1575 80.8816 29.1768 82.3246C27.7848 82.7277 26.3203 83.1454 24.847 83.5719C20.985 84.6848 17.0737 85.8123 14.348 86.5893C12.1744 87.2115 10.7505 87.6117 10.7098 87.6117C7.51912 87.6614 5.95865 83.5339 8.31824 81.4395L18.733 73.2431L20.0116 72.2383L20.1743 72.1097L20.9444 71.5022C21.8539 71.5869 22.7664 71.6424 23.6817 71.6599C28.1248 71.7709 32.6609 71.1429 36.7641 69.9511C45.7171 67.3718 52.6622 62.1198 52.3658 55.9915C52.3658 53.5027 51.3197 51.1484 49.4541 49.0598L49.6895 48.87L49.6953 48.8641C49.6953 48.8641 50.6223 48.017 52.0084 46.7522L52.052 46.7142C55.8907 43.2148 63.1787 36.6045 64.1115 35.9473C64.8205 35.4478 66.6483 35.106 66.721 36.2891C66.7384 36.5198 66.6832 36.8119 66.5466 37.1712C66.2996 37.8051 64.3178 40.8517 63.6117 43.5303C63.1932 45.02 63.7686 46.7435 64.9135 47.6694C64.9687 47.7191 65.0239 47.7658 65.082 47.8096C65.2942 47.9674 65.5121 48.1017 65.7475 48.2186C65.9945 48.3471 69.4903 49.6616 70.7602 50.3918C72.341 51.3061 73.945 52.3811 75.2759 53.6225L75.2149 53.5612C76.9236 55.2408 79.1989 54.7062 80.3729 53.2691C81.2272 52.2408 81.5236 50.757 80.6635 49.276C80.6635 49.276 80.6596 49.2721 80.6518 49.2643C80.3729 48.8028 79.0304 47.6402 79.0245 47.6402C76.7899 45.5955 74.1688 43.9597 71.3007 42.8556C71.3065 42.8497 71.3123 42.8439 71.3123 42.838C72.989 39.806 73.945 36.327 73.945 32.6144C73.945 32.1032 73.6544 16.3471 73.6835 16.1047C74.1078 10.7241 78.7746 7.40876 83.5025 7.26271L83.5083 7.25686C86.5363 7.16047 89.5817 8.3581 91.5606 11.1389C93.5947 14.2674 96.4948 19.5603 98.9416 23.7052C99.6739 24.9525 100.365 26.0976 100.982 27.0469C100.685 26.9301 91.7378 23.3109 88.3641 22.8552L88.3612 22.8581Z" fill="#F08F34" stroke="white" stroke-miterlimit="10" stroke-linecap="round"/>
<path d="M86.4434 14.1739C86.2922 18.1903 80.5531 18.1903 80.3962 14.1739C80.3526 11.5508 83.6769 10.1282 85.5193 11.9889L83.4241 14.1739H86.4463H86.4434Z" fill="#F08F34" stroke="white" stroke-miterlimit="10" stroke-linecap="round"/>
<path d="M52.0055 46.7551L20.9414 71.508L20.1714 72.1156" fill="white"/>
<path d="M52.0055 46.7551L20.9414 71.508L20.1714 72.1156" stroke="white" stroke-miterlimit="10" stroke-linecap="round"/>
<path d="M58.448 74.1632L79.17 68.5372C80.5822 68.1546 81.9306 67.5587 83.1743 66.7729C84.6272 65.9346 85.8942 64.9093 86.8822 63.5189C87.8208 62.3388 88.5473 60.887 88.5386 59.3272L88.5444 59.1023" stroke="white" stroke-miterlimit="10" stroke-linecap="round"/>
<path d="M56.2706 52.3746C56.0275 52.2631 55.865 51.9795 55.706 51.7771C55.4417 51.4407 55.186 51.0981 54.9247 50.7594C54.6613 50.4182 54.3769 49.8128 53.8939 50.011C53.6616 50.1063 53.3695 50.2492 53.1126 50.162C52.8262 50.0647 52.612 49.8325 52.3477 49.6925C52.2327 49.6317 51.902 49.6055 51.7798 49.5973C51.7562 49.5958 51.8247 49.5841 51.7798 49.466C51.7227 49.3162 51.5924 49.1436 51.7535 49.0557C51.943 48.9523 52.0372 48.6359 52.1048 48.4484C52.2248 48.1149 52.5601 47.94 52.8565 47.7787C53.2761 47.5503 53.686 47.3209 54.0876 47.0532C54.5114 46.7706 54.8701 46.4492 55.1742 46.0388C55.2601 45.9228 55.4122 45.9021 55.5156 45.8024C55.7068 45.618 55.9114 45.5218 56.1196 45.3691C56.4678 45.1138 56.8837 44.9808 57.2128 44.6929C57.5232 44.4213 57.866 44.2229 58.1878 43.9706C58.6096 43.64 58.9279 43.1728 59.3433 42.8315C59.5058 42.6981 59.6023 42.5291 59.7569 42.3916C59.9201 42.2466 60.1319 42.1907 60.2887 42.0338C60.5567 41.7658 60.964 41.5846 61.1981 41.2984C61.275 41.2044 60.6563 41.5481 60.5809 41.5873C60.2042 41.7835 59.8139 41.9211 59.4484 42.1388C58.9903 42.4117 58.4761 42.6436 58.1352 43.0646C57.9016 43.3532 57.7025 43.6004 57.3933 43.8065" stroke="white" stroke-width="3" stroke-linecap="round"/>
<path d="M59.8159 47.2928C59.9034 46.1997 59.8145 44.9244 60.2 43.8853C60.3734 43.4179 60.4317 42.8953 60.6432 42.4474C60.9408 41.8172 61.476 41.3157 61.7363 40.6747C61.9335 40.1895 62.1324 39.5048 62.5406 39.1646C62.8742 38.8866 63.2034 38.6568 63.5714 38.4293C63.819 38.2763 64.1301 38.2368 64.3659 38.0616C64.5984 37.8889 64.7777 37.6052 64.9108 37.3657C64.9826 37.2365 65.0553 37.149 65.1931 37.0998C65.5868 36.9592 65.4755 37.1216 65.2095 37.4084C64.3193 38.3684 63.4293 39.4632 63.0035 40.7141C62.7108 41.5739 62.4772 42.4562 62.1401 43.301C61.8212 44.1003 61.4433 44.9195 61.2341 45.7565" stroke="white" stroke-width="3" stroke-linecap="round"/>
<path d="M50.3613 69.629C50.7336 69.5421 50.9393 69.0968 51.1098 68.7952C51.5247 68.0611 51.8838 67.3018 52.3376 66.5891C52.8122 65.8437 53.3419 65.1362 53.7787 64.3667C54.1985 63.6271 54.5626 62.8513 54.931 62.0852C55.1968 61.5324 55.324 60.9806 55.4759 60.3912C55.6205 59.8304 55.8486 59.3043 56.0668 58.7695C56.6809 57.2646 57.3786 55.8553 57.833 54.2852C58.272 52.7682 58.6197 51.3095 58.7259 49.7287C58.7548 49.2984 58.7224 48.8642 58.7554 48.4353C58.7722 48.217 58.8052 48.4234 58.7981 48.5404C58.7406 49.4866 58.6241 50.4246 58.4731 51.3603C58.1843 53.1494 57.9407 54.9458 57.6491 56.7342C57.375 58.4159 56.9674 60.0456 56.4312 61.6617C56.3919 61.7801 55.6092 63.7001 55.7582 63.8119C55.8319 63.8671 55.848 63.6511 55.8895 63.569C56.1114 63.1309 56.3464 62.7008 56.5921 62.2756C57.2771 61.0898 57.9877 59.9124 58.7521 58.7761C59.4678 57.7123 60.249 56.6977 60.9319 55.6115C61.1537 55.2588 61.3798 54.6707 61.7263 54.4067C61.9049 54.2707 61.7186 55.2259 61.7132 55.2504C61.5237 56.1064 61.1636 56.9388 60.7908 57.7289C60.5004 58.3442 60.1458 58.9244 59.691 59.4327C59.4321 59.722 59.4674 59.6205 59.6254 59.3572C59.9031 58.8942 60.2968 58.5741 60.7218 58.2509C61.1532 57.9228 61.5663 57.5587 62.0382 57.289C63.1734 56.6403 64.4361 56.5248 65.7117 56.4223C66.7691 56.3374 67.8022 56.257 68.8434 56.0415C69.137 55.9808 69.4377 55.9736 69.7298 55.9069C70.0009 55.8451 70.2634 55.6962 70.5439 55.6837C72.0715 55.6158 73.5905 55.5655 75.1201 55.5655C75.8932 55.5655 76.5971 55.7097 77.3327 55.8872C77.8721 56.0174 78.433 55.9792 78.984 55.9792C79.6723 55.9792 80.404 56.0513 81.0587 55.8019C81.7571 55.5359 82.5033 55.4407 83.1892 55.1519C83.3965 55.0646 83.7584 54.9289 83.8917 54.735C84.0071 54.5673 84.0087 54.3337 84.1018 54.1474" stroke="white" stroke-width="3" stroke-linecap="round"/>
<path d="M72.4262 42.5385C72.312 42.5385 72.3837 42.3162 72.3995 42.2529C72.4813 41.926 72.6704 41.5464 72.883 41.2838C72.9268 41.2296 72.9763 41.1579 73.0441 41.1315C73.1039 41.1083 73.1191 41.2978 73.1253 41.3294C73.1897 41.657 73.1264 42.0062 73.1264 42.3374C73.1264 42.4085 73.059 42.7974 73.2231 42.6586C73.5961 42.343 73.8748 41.8695 74.0633 41.426C74.0689 41.4128 74.1606 41.1569 74.1655 41.2627C74.1747 41.4595 74.1531 41.656 74.1266 41.8506C74.1183 41.9114 74.0051 42.6411 74.0788 42.6574C74.1392 42.6709 74.2304 42.5835 74.2711 42.5541C74.466 42.4134 74.6655 42.2744 74.8068 42.0762C74.9291 41.9046 75.0299 41.7094 75.1135 41.5161C75.1349 41.4666 75.1006 41.7728 75.0935 41.8095C75.0325 42.126 74.9555 42.4395 74.8957 42.7564C74.8896 42.7886 74.7998 43.1463 74.8557 43.1742C74.9178 43.2053 75.1253 42.9123 75.1513 42.8831C75.3552 42.6532 75.5308 42.4117 75.6692 42.1362C75.7114 42.0523 75.7472 41.9662 75.7737 41.8762C75.7805 41.8529 75.8003 41.7885 75.807 41.8117C75.8665 42.0161 75.7849 42.2884 75.7426 42.4874C75.687 42.7487 75.6298 43.0108 75.5558 43.2676C75.5309 43.354 75.5383 43.3785 75.6003 43.2965C75.7309 43.1238 75.8246 42.9171 75.9182 42.723C75.9986 42.556 76.0848 42.3872 76.1315 42.2073C76.244 41.7748 76.055 43.098 76.016 43.5432C76.012 43.5885 75.9807 43.7368 76.0504 43.7577C76.1722 43.7942 76.2655 43.6401 76.3305 43.5643C76.6284 43.2167 76.8142 42.8299 77.054 42.4463C77.0848 42.397 77.0946 42.5571 77.0973 42.6152C77.1144 42.9852 77.0591 43.3382 76.9995 43.7021C76.9613 43.9358 76.8996 44.201 76.9384 44.439C76.9562 44.5482 77.0321 44.4724 77.0718 44.4179C77.2298 44.2006 77.3385 43.9531 77.4696 43.7199C77.5959 43.4954 77.7424 43.2839 77.8442 43.0464C77.8664 42.9946 77.9158 42.8573 77.9475 42.9864C78.0288 43.3172 77.968 43.6968 77.9253 44.0278C77.8787 44.3888 77.7929 44.7641 77.8119 45.1303C77.8197 45.2789 77.9092 45.2665 77.9953 45.1758C78.4838 44.6612 78.8901 44.0753 79.2023 43.4399C79.2105 43.423 79.2768 43.2557 79.3078 43.3354C79.4088 43.5951 79.3427 43.9744 79.3145 44.24C79.2765 44.5984 79.2278 44.9491 79.2278 45.3103C79.2278 45.3174 79.2111 45.5035 79.2512 45.4159C79.348 45.204 79.4106 44.9687 79.4879 44.7491C79.5548 44.559 79.6421 44.3752 79.7057 44.1845C79.7411 44.0784 79.783 44.2598 79.788 44.2834C79.8437 44.5464 79.8514 44.8168 79.8469 45.0847C79.8445 45.2213 79.7926 45.421 79.8391 45.5537C79.8501 45.5852 79.9362 45.2693 79.9436 45.2158C79.9509 45.1625 79.9904 45.0191 79.9269 45.0191C79.656 45.0191 79.5456 44.6741 79.499 44.4634C79.4296 44.1493 79.4322 43.8174 79.4079 43.4976C79.3741 43.0542 79.3083 42.6122 79.2834 42.1684C79.2702 41.9326 79.2624 41.6718 79.3234 41.4405C79.345 41.3587 79.3726 41.421 79.389 41.4683C79.4312 41.5901 79.4494 41.7197 79.4634 41.8473C79.4903 42.0917 79.501 42.3381 79.5235 42.583C79.5393 42.7559 79.6221 42.4905 79.6368 42.4496C79.7727 42.0728 79.8458 41.6624 79.8858 41.2649C79.9162 40.9618 79.9273 40.6256 79.8413 40.3291C79.8039 40.2003 79.6601 40.5536 79.6457 40.5803C79.4908 40.8664 79.2936 41.1117 79.0545 41.3316C78.99 41.3909 78.9221 41.4459 78.8555 41.5027C78.8401 41.5159 78.8123 41.5603 78.8077 41.5405C78.7566 41.3188 78.7629 41.0746 78.7344 40.8492C78.6866 40.4717 78.6426 40.0743 78.5321 39.709C78.441 39.4077 78.3676 39.6928 78.3143 39.849C78.1901 40.2126 78.0721 40.5775 77.9008 40.9226C77.885 40.9546 77.692 41.3709 77.6675 41.1671C77.6128 40.7138 77.6587 40.2438 77.663 39.789C77.6663 39.4483 77.7011 39.0188 77.5519 38.6976C77.5499 38.6934 77.525 38.6432 77.503 38.6643C77.44 38.7245 77.4257 38.9198 77.413 38.9855C77.2959 39.5876 77.1266 40.1712 76.9495 40.7581C76.8709 41.0185 76.7929 41.2794 76.6961 41.5338C76.6697 41.6034 76.6203 41.7905 76.5505 41.8428C76.4893 41.8887 76.4829 41.7029 76.4716 41.6272C76.4337 41.3722 76.4093 41.1148 76.3749 40.8592C76.2935 40.2543 76.2401 39.6491 76.1782 39.0421C76.1642 38.9044 76.1495 38.7661 76.1315 38.6287C76.1238 38.5695 76.1175 38.636 76.1138 38.6565C75.9698 39.4415 75.7888 40.212 75.4225 40.9259C75.4008 40.9682 75.3913 41.075 75.3513 41.0493C75.3447 41.045 75.3477 41.0338 75.3469 41.0259C75.3433 40.9892 75.3362 40.8324 75.3358 40.8248C75.3118 40.3424 75.3069 39.8607 75.3069 39.3778C75.3069 39.1 75.3526 38.7755 75.3047 38.4998C75.2777 38.3444 75.2009 38.7976 75.1491 38.9466C75.0201 39.3177 74.8443 39.6742 74.6634 40.0224C74.6617 40.0256 74.5808 40.2095 74.5445 40.2002C74.5115 40.1917 74.5073 39.9924 74.5067 39.9857C74.4796 39.6875 74.4867 39.3879 74.4867 39.0888C74.4867 39.0017 74.5146 38.7497 74.4756 38.8276C74.4242 38.9304 74.4383 39.0802 74.4089 39.1911C74.3542 39.3979 74.2705 39.621 74.1711 39.8112C74.1022 39.9429 74.0781 39.6241 74.0755 39.5934C74.0563 39.3713 74.0827 39.1561 74.1577 38.9466C74.2186 38.7766 74.3327 38.4292 74.5667 38.6154C74.688 38.7119 74.8469 39.0563 75.0113 38.831C75.1845 38.5936 75.3014 38.2881 75.4269 38.0241C75.6207 37.6168 75.7407 37.213 75.7737 36.7616C75.8134 36.2183 75.8306 35.6752 75.8826 35.1323C75.9035 34.9137 75.927 34.6967 75.9748 34.4822C75.9886 34.4207 76.0016 34.2504 76.036 34.3032C76.0858 34.3799 76.1031 34.563 76.1171 34.64C76.1619 34.8869 76.1869 35.1351 76.1982 35.3857C76.225 35.98 76.2207 36.5766 76.1915 37.1706C76.1819 37.3677 76.1721 37.565 76.1582 37.7618C76.1562 37.79 76.1521 37.8181 76.1515 37.8463C76.1509 37.878 76.1557 37.886 76.1782 37.8552C76.5115 37.3986 76.7827 36.8698 77.0518 36.3748C77.3689 35.7913 77.6838 35.2028 77.9609 34.5989C77.9728 34.5728 78.0034 34.5012 78.0109 34.5289C78.0492 34.6705 78.066 34.8302 78.0787 34.9745C78.1551 35.8463 78.0399 36.72 78.0698 37.5929C78.0844 38.0205 78.0846 38.605 78.3254 38.9866C78.3684 39.0547 78.421 38.9284 78.431 38.9099C78.567 38.6586 78.6607 38.3786 78.7499 38.1086C79.0588 37.1746 79.2466 36.217 79.3256 35.2368C79.3391 35.0695 79.3233 34.8752 79.3501 34.7078C79.3653 34.6129 79.3835 34.8971 79.3968 34.9923C79.4792 35.5863 79.5047 36.189 79.5146 36.7883C79.5187 37.0376 79.514 37.287 79.5079 37.5362C79.5066 37.5892 79.5046 37.6422 79.5034 37.6952C79.5024 37.7419 79.4697 37.8587 79.5101 37.8352C79.571 37.7999 79.631 37.4545 79.6401 37.4195C79.7123 37.1442 79.7745 36.8665 79.8235 36.586C79.8713 36.3128 79.9085 36.0377 79.9324 35.7614C79.9386 35.6901 79.9433 35.4839 79.9702 35.5502C80.1055 35.8837 80.093 36.3073 80.0836 36.6594C80.0728 37.0631 80.0348 37.6067 79.7435 37.9219C79.5689 38.1108 79.4483 38.3833 79.3479 38.6176" stroke="white" stroke-width="2" stroke-linecap="round"/>
<path d="M74.4468 38.4976C74.4682 38.2616 74.6068 38.0032 74.6979 37.7863C74.8057 37.5299 74.9449 37.2919 75.0558 37.0384C75.2392 36.6192 75.332 36.2086 75.4115 35.7592C75.4719 35.4172 75.4882 35.0759 75.5193 34.7311C75.547 34.4233 75.599 34.1191 75.6148 33.8098C75.6391 33.3358 75.6176 32.8611 75.6504 32.3873C75.6751 32.0308 75.7173 31.6747 75.7626 31.3203C75.7699 31.2636 75.7644 31.1064 75.7982 31.1525C75.8453 31.2168 75.8418 31.4447 75.8471 31.5048C75.8913 32.0062 75.9059 32.5088 75.9071 33.0119C75.9082 33.4377 75.9035 33.8496 75.8115 34.2677C75.7502 34.5463 75.6747 34.8229 75.6071 35.1001C75.5535 35.3198 75.4874 35.5563 75.367 35.7503C75.2602 35.9223 75.0517 36.0862 74.8802 36.1926C74.8506 36.211 74.8092 36.242 74.8024 36.1926C74.7752 35.9937 74.8033 35.8003 74.8469 35.6058C74.9726 35.0447 75.1358 34.4923 75.2825 33.9365C75.5633 32.8733 75.4001 31.7824 75.3581 30.7024C75.3469 30.4149 75.351 30.1275 75.3425 29.84C75.3379 29.6814 75.2986 29.2082 75.327 29.3643C75.3747 29.627 75.3808 29.9018 75.4159 30.1667C75.4937 30.7547 75.5733 31.3326 75.5826 31.9271C75.6011 33.1128 75.428 34.2704 75.217 35.4335C75.1182 35.9781 74.9584 36.4615 74.6691 36.9317C74.6291 36.9966 74.5688 37.0693 74.6202 36.9395C74.7464 36.62 75.0119 36.3532 75.2158 36.0837C76.4156 34.4979 76.8275 32.5265 77.3764 30.6557C77.57 29.9957 77.7529 29.3224 78.0065 28.6819C78.0145 28.6618 78.0702 28.4881 78.1076 28.4597C78.1651 28.4161 78.1775 28.5868 78.1999 28.6553C78.4425 29.3962 78.6073 30.1707 78.6689 30.948C78.7378 31.8171 78.7032 32.6933 78.7089 33.5642C78.7104 33.7928 78.7117 33.8883 78.7178 34.1043C78.7189 34.143 78.7022 34.3573 78.7322 34.41C78.7356 34.4159 78.7428 34.4007 78.7456 34.3944C78.7755 34.3267 78.8089 34.1934 78.8223 34.1388C78.9012 33.8164 78.9526 33.4881 79.0056 33.1608C79.1538 32.2458 79.295 31.3271 79.3391 30.4001C79.3425 30.3279 79.3439 30.2557 79.3457 30.1834C79.3473 30.1204 79.3022 30.0294 79.3546 29.9945C79.3646 29.9878 79.3705 30.0132 79.3746 30.0245C79.4041 30.1047 79.4551 30.3137 79.468 30.3757C79.5973 31.001 79.6198 31.643 79.6358 32.2795C79.6504 32.8615 79.6463 33.4417 79.6191 34.0232C79.618 34.0468 79.5471 34.6166 79.678 34.4555C79.8604 34.231 79.9601 33.9181 80.0592 33.652C80.1279 33.4674 80.2412 33.2484 80.2748 33.0541C80.2839 33.0015 80.1745 33.0961 80.1348 33.1319C80.0639 33.1958 79.9976 33.2657 79.9192 33.3208C79.6285 33.525 79.2934 33.6196 78.9378 33.6131C78.7309 33.6093 78.5333 33.5586 78.3299 33.5275C78.2026 33.5081 78.0655 33.5041 77.9421 33.4653C77.8718 33.4432 77.8168 33.3882 77.772 33.3319C77.732 33.2816 77.6817 33.1582 77.612 33.1408C77.5526 33.1259 77.431 33.2613 77.3875 33.2919C77.3167 33.3418 77.2459 33.3815 77.1674 33.4164" stroke="white" stroke-width="2" stroke-linecap="round"/>
<path d="M75.7271 30.3157C75.7103 30.0542 75.62 29.7978 75.5671 29.5421C75.4588 29.0187 75.3872 28.4937 75.327 27.9629C75.2652 27.4176 75.1609 26.8851 75.0281 26.3536C74.9216 25.9279 74.8512 25.4779 74.798 25.0433C74.7085 24.3127 74.6352 23.6161 74.7824 22.8895C74.8767 22.4243 74.992 21.9623 75.0881 21.498C75.098 21.45 75.1451 21.5789 75.1625 21.6247C75.3195 22.0375 75.4497 22.4628 75.5626 22.8895C75.909 24.1974 76.1278 25.5352 76.4717 26.8448C76.6454 27.506 76.8272 28.1647 76.9519 28.8375C77.0634 29.4395 77.1271 30.0479 77.1952 30.6557C77.2418 31.0712 77.294 31.4856 77.3453 31.9005C77.3602 32.0212 77.3699 32.1425 77.3875 32.2628C77.3912 32.288 77.4036 32.3505 77.4209 32.3317C77.5008 32.2445 77.5066 31.9587 77.5142 31.8749C77.5778 31.1754 77.5663 30.4658 77.5642 29.7644C77.5577 27.5573 77.4503 25.3553 77.3364 23.1517C77.2876 22.2087 77.2329 21.2626 77.2475 20.3177C77.2482 20.268 77.2682 20.4151 77.2742 20.4644C77.3449 21.0468 77.4007 21.6311 77.4309 22.2171C77.5089 23.7354 77.4868 25.2531 77.6076 26.7704C77.6473 27.269 77.6969 27.7666 77.7754 28.2607C77.8006 28.4197 77.8341 28.6109 77.8721 28.772C77.8816 28.8123 77.9122 28.9149 77.9343 28.8798C78.0538 28.6899 78.0887 28.3284 78.1321 28.124C78.2549 27.5463 78.3531 26.9638 78.45 26.3814C78.5678 25.6736 78.6819 24.9651 78.7945 24.2564C78.8896 23.6579 78.9516 23.0437 79.0835 22.4516C79.1293 22.246 79.1772 22.243 79.2191 22.466C79.3474 23.1494 79.3599 23.8705 79.368 24.5632C79.3856 26.0649 79.2384 27.5631 79.2213 29.0643C79.2179 29.362 79.2221 29.6599 79.2468 29.9567C79.252 30.0191 79.227 30.1802 79.2768 30.1423C79.3286 30.103 79.3818 29.8355 79.3869 29.8167C79.5321 29.2725 79.6355 28.7179 79.7414 28.1651C79.9694 26.9751 80.2391 25.7811 80.346 24.5721C80.3607 24.4055 80.353 24.2347 80.3704 24.0686C80.388 23.9014 80.4101 24.4029 80.416 24.571C80.4418 25.3063 80.4507 26.0473 80.4249 26.7826C80.406 27.3208 80.3752 27.8516 80.186 28.3596C80.1799 28.3758 80.1689 28.4244 80.1659 28.4074C80.1426 28.2729 80.1315 28.1354 80.1193 27.9996C80.1017 27.8048 80.0821 27.6099 80.0681 27.415" stroke="white" stroke-width="2" stroke-linecap="round"/>
<path d="M80.4682 29.6155C80.4555 29.6982 80.4082 29.7716 80.4082 29.8555" stroke="white" stroke-width="2" stroke-linecap="round"/>
<path d="M74.767 29.1553C74.6139 28.9622 74.5748 28.7579 74.5191 28.5229C74.4921 28.4088 74.6886 28.4551 74.767 28.4551" stroke="white" stroke-width="2" stroke-linecap="round"/>
<path d="M75.407 21.0535C75.3963 20.5041 75.3327 19.9636 75.3625 19.4131C75.375 19.1827 75.387 18.9526 75.387 18.7218C75.387 18.4392 75.3492 18.1597 75.3469 17.8772C75.3424 17.2963 75.411 16.7205 75.447 16.1412C75.4957 15.3557 75.4366 14.5708 75.4481 13.7851C75.4509 13.5906 75.4946 13.0111 75.5114 13.2049C75.5508 13.658 75.4496 14.0717 75.3492 14.5097C75.1749 15.2702 74.904 16.0092 74.7679 16.778C74.7188 17.0553 74.633 17.3226 74.5823 17.5993C74.5174 17.9536 74.4824 18.3015 74.4879 18.6618C74.4928 18.9886 74.5478 19.3096 74.5623 19.6354C74.5765 19.9522 74.608 20.2262 74.6823 20.5356C74.7415 20.7816 74.7685 21.0321 74.8357 21.2769C74.8435 21.3051 74.9057 21.6029 74.9491 21.5247C75.2344 21.0112 75.4391 20.4193 75.6026 19.8587C75.947 18.6774 75.9982 17.439 76.0871 16.219C76.125 15.699 76.1601 15.1788 76.1949 14.6586C76.2169 14.3313 76.2104 13.9753 76.2772 13.6517C76.28 13.6378 76.2775 13.6109 76.2916 13.6117C76.351 13.6153 76.3367 13.7225 76.3494 13.7806C76.4695 14.3304 76.498 14.9004 76.5139 15.461C76.5517 16.791 76.4773 18.1227 76.4894 19.4531C76.4933 19.8732 76.5053 20.2921 76.535 20.7112C76.544 20.8386 76.5562 20.9258 76.6239 20.7401C76.7258 20.4605 76.7646 20.1575 76.8028 19.8643C76.9006 19.1145 76.9604 18.3584 77.0051 17.6038C77.0611 16.6595 77.1055 15.7177 77.2352 14.7798C77.238 14.7594 77.2501 14.6247 77.2763 14.732C77.3709 15.1197 77.4113 15.5338 77.4408 15.93C77.5582 17.5095 77.3717 19.091 77.4208 20.6712C77.4303 20.9784 77.448 21.2898 77.5052 21.5925C77.5097 21.6162 77.5417 21.8738 77.6119 21.7459C77.7489 21.4963 77.8223 21.1876 77.8987 20.9179C78.0665 20.325 78.1969 19.7229 78.3099 19.1175C78.4161 18.5483 78.5096 17.9769 78.6122 17.4071C78.686 16.9971 78.7362 16.5426 78.8833 16.149C78.9124 16.0712 78.9281 16.0405 78.9589 16.1368C78.9962 16.2532 79.0233 16.4842 79.0345 16.5857C79.0956 17.1414 79.0826 17.6978 79.0534 18.255C79.0073 19.1352 78.9039 20.0243 78.9567 20.9068C78.9628 21.009 78.995 21.3484 79.1345 21.1168C79.2376 20.9457 79.2956 20.7428 79.3523 20.5534C79.488 20.1007 79.5877 19.6386 79.6991 19.1797C79.7537 18.9547 79.8069 18.7273 79.8802 18.5073C79.8882 18.4833 79.9214 18.424 79.928 18.4484C79.9452 18.5118 79.9664 18.761 79.968 18.7807C80.0529 19.7692 79.9069 20.7477 79.8058 21.7292C79.7787 21.9919 79.7572 22.2543 79.7502 22.5183C79.7492 22.5553 79.7444 22.6887 79.7524 22.7417C79.7592 22.7864 79.7689 22.7931 79.798 22.7494C79.8996 22.597 79.9515 22.3941 80.0125 22.2249C80.1695 21.7897 80.3336 21.3569 80.4859 20.9201C80.6049 20.5792 80.7044 20.2292 80.8371 19.8932C80.924 19.6735 80.9079 20.0959 80.9083 20.1066C80.9341 20.8319 80.788 21.5355 80.6627 22.246C80.6231 22.4699 80.5846 22.6943 80.5615 22.9206C80.5536 22.998 80.5258 23.2206 80.566 23.154C80.6214 23.0621 80.6557 22.947 80.6938 22.8483C80.7872 22.6065 80.8808 22.365 80.9838 22.1271C81.0183 22.0474 81.0753 21.8359 81.155 21.7814C81.172 21.7698 81.1838 21.8135 81.1883 21.8337C81.2067 21.915 81.2111 21.9795 81.2106 22.0659C81.2068 22.6221 81.0512 23.1891 80.9727 23.7386C80.947 23.9184 80.9212 24.0983 80.9116 24.2798C80.9078 24.3522 80.8868 24.4853 80.9205 24.5565C80.9388 24.5952 80.9917 24.5527 81.0083 24.5965C81.0482 24.7023 81.0377 24.8595 81.0238 24.97C81.0168 25.0266 81.0083 25.0781 81.0083 25.1356C81.0083 25.228 81.0164 24.9478 81.0483 24.861C81.1069 24.7016 81.2119 24.5782 81.3106 24.4421C81.4509 24.2485 81.5417 24.0535 81.644 23.8386C81.8285 23.4511 82.0441 23.0307 82.3886 22.7628C82.6452 22.5632 82.9422 22.4084 83.2166 22.2349C83.5528 22.0222 83.8849 21.8016 84.2346 21.6114C84.9095 21.2443 85.6354 20.9209 86.3673 20.6856C86.6823 20.5844 87.0002 20.4945 87.3253 20.4333C87.3534 20.4281 87.5773 20.3553 87.6032 20.38C87.6373 20.4125 87.457 20.5427 87.4476 20.5489C87.1466 20.7462 86.8042 20.8961 86.4907 21.0735C86.1141 21.2866 85.7524 21.5241 85.3738 21.7336C85.0083 21.9359 84.6351 22.1244 84.268 22.3238C83.7958 22.5802 83.2967 22.778 82.8243 23.0306C82.6461 23.1259 82.472 23.2307 82.2997 23.3362C82.2337 23.3767 82.1398 23.4229 82.0885 23.4874C81.9788 23.6252 81.891 23.7941 81.7996 23.9442C81.5501 24.3537 81.3414 24.8011 81.0605 25.19C81.0057 25.2659 81.2302 25.0565 81.2372 25.0478C81.5804 24.6194 81.81 24.1001 82.0763 23.6241C82.4968 22.8726 82.9311 22.0831 83.5578 21.4802C84.3278 20.7395 85.3409 20.2983 86.3384 19.9599C87.3176 19.6277 88.3318 19.3841 89.3503 19.2086C89.6067 19.1644 89.865 19.1195 90.1238 19.0908C90.2439 19.0775 90.3873 19.0514 90.4839 19.1441C90.659 19.3123 90.7483 19.62 90.8362 19.8387C90.8447 19.8599 91.0088 20.286 90.8906 20.2711C90.7873 20.258 90.6725 20.1801 90.5839 20.1355C90.2871 19.986 89.9831 19.855 89.6637 19.7609C89.0885 19.5915 88.4589 19.5349 87.861 19.502C87.461 19.48 87.0664 19.5576 86.6763 19.6365C85.9838 19.7765 85.2908 19.9109 84.5869 19.981C83.9852 20.041 83.3313 20.1131 82.7287 20.0199C82.5158 19.987 82.3391 19.8859 82.153 19.7854C81.9973 19.7013 82.0385 19.6747 82.1952 19.6198C82.6454 19.4622 83.1154 19.3803 83.5833 19.2942C84.0188 19.214 84.4841 19.1951 84.907 19.0574C84.9446 19.0452 84.9506 19.0363 84.907 19.0341C84.791 19.0282 84.6738 19.038 84.558 19.043C84.1314 19.0614 83.7008 19.0503 83.2799 18.973C82.8625 18.8963 82.4949 18.748 82.1197 18.5529C81.785 18.3788 81.4421 18.2138 81.0983 18.0583C81.041 18.0324 80.9813 18.0026 80.9216 17.9816C80.8369 17.9519 81.0785 18.0701 81.1617 18.1039C81.597 18.2808 82.0645 18.4305 82.5142 18.5662C83.074 18.7351 83.7105 18.7586 84.2868 18.6762C84.9113 18.587 85.5313 18.4429 86.134 18.2573C86.2784 18.2128 86.4206 18.1631 86.5618 18.1094C86.6617 18.0715 86.6575 18.0908 86.5696 18.1506C86.1377 18.4445 85.555 18.5244 85.0515 18.5929C83.8374 18.758 82.6033 18.8364 81.3795 18.8841C80.9441 18.901 80.5066 18.9119 80.0714 18.8841C79.7118 18.8611 79.3238 18.8198 79.0089 18.6273C78.6821 18.4276 78.7045 18.0555 78.7011 17.7127C78.6985 17.4564 78.7534 17.0815 78.9378 16.8836C79.1162 16.6921 79.4061 17.1117 79.4924 17.2192C79.77 17.5651 79.9892 17.9645 80.307 18.2773C80.5226 18.4894 80.4167 18.0048 80.3993 17.9105C80.2972 17.3593 80.0994 16.8145 79.8413 16.3179C79.7674 16.1757 79.6788 15.9481 79.5568 15.8356C79.5214 15.8029 79.5279 16.0722 79.5279 16.0767C79.5279 16.1182 79.4939 16.6691 79.4746 16.6547C79.4042 16.6022 79.3652 16.3927 79.349 16.3279C79.2643 15.9889 79.2307 15.6398 79.149 15.2999C79.0052 14.702 78.8522 14.0666 78.5744 13.5139C78.3776 13.1225 78.2077 13.8459 78.1632 13.9785C78.0939 14.1846 78.015 14.3846 77.9187 14.5797C77.8619 14.6947 77.7858 14.891 77.6731 14.9709C77.633 14.9993 77.2951 13.9673 77.2696 13.8896C77.13 13.4627 76.9477 13.0277 76.9084 12.5759C76.8865 12.3237 76.9413 13.0982 76.8462 13.3328C76.5776 13.9953 75.6464 13.7547 75.3058 13.295C75.2438 13.2113 75.0224 12.9697 75.0758 12.8471C75.1125 12.7626 75.2417 12.7361 75.3225 12.7326C75.5377 12.7235 75.754 12.7349 75.9693 12.7315C76.1506 12.7287 76.3237 12.6962 76.4161 12.5226C76.5523 12.2666 76.6109 11.9485 76.6784 11.669C76.7447 11.3944 76.8206 11.1187 76.9184 10.8533C76.9844 10.6742 76.9851 11.0171 76.9862 11.0622C76.9987 11.5795 76.8903 12.101 76.7984 12.607C76.699 13.1543 76.5551 13.7052 76.5294 14.263C76.5244 14.3727 76.5307 14.41 76.6484 14.3686C76.9191 14.2732 77.173 14.1191 77.4297 13.9929C77.883 13.77 78.3496 13.5698 78.8633 13.5606C79.0191 13.5578 79.0367 13.6387 79.0023 13.7829C78.9548 13.9815 78.7926 14.1535 78.6833 14.3208C78.5574 14.5134 78.3884 14.7094 78.3277 14.932" stroke="white" stroke-width="2" stroke-linecap="round"/>
<path d="M78.0276 12.3914C77.9059 12.0828 77.8293 11.7074 77.9342 11.3822C78.0472 11.0321 78.3213 10.8144 78.5722 10.5665C78.7337 10.4068 78.886 10.2224 79.0634 10.0797C79.178 9.98751 78.9222 10.1552 78.8934 10.1708C78.7336 10.2575 78.5347 10.2847 78.391 10.3976C78.3379 10.4393 78.2059 10.427 78.1387 10.452C78.1347 10.4535 78.0153 10.5096 78.0376 10.4742C78.0876 10.395 78.205 10.3328 78.281 10.2875C78.4783 10.1699 78.6917 10.0904 78.9023 10.0008C79.124 9.90643 79.3364 9.79269 79.5524 9.68628C79.7595 9.58426 79.9428 9.44217 80.1481 9.33953C80.3425 9.24232 80.5545 9.16387 80.7549 9.07947C81.0132 8.9707 81.2974 8.83052 81.5818 8.83052C81.7902 8.83052 81.9999 8.79094 82.2086 8.78051C82.4553 8.76817 82.7019 8.77051 82.9488 8.77051C83.3955 8.77051 83.8424 8.76776 84.2891 8.77051C84.581 8.7723 84.8732 8.7932 85.1649 8.80607C85.4362 8.81804 85.7152 8.81067 85.9851 8.83941C86.4586 8.88984 86.8693 9.16638 87.2965 9.35064C87.563 9.46563 87.8052 9.61653 88.0511 9.77185C88.1914 9.86048 88.2721 9.99736 88.3956 10.1042C88.4113 10.1177 88.4607 10.1535 88.4412 10.1464C88.3296 10.1058 88.2365 10.0258 88.1322 9.97079C87.8009 9.79598 87.3816 9.76023 87.0164 9.71073C86.6399 9.6597 86.2729 9.64133 85.8939 9.67516C85.3469 9.72401 84.8049 9.73073 84.2558 9.73073C83.8317 9.73073 83.3998 9.75379 82.9766 9.72073C81.9973 9.64423 81.0716 9.88611 80.2592 10.4342C80.0115 10.6014 79.8351 10.8557 79.6191 11.0599C79.4366 11.2324 79.3032 11.4141 79.149 11.609C79.0405 11.746 78.9981 11.8853 78.9256 12.0402C78.8936 12.1085 78.8449 12.1659 78.81 12.2324C78.7665 12.3156 78.7502 12.4082 78.7189 12.4958C78.6906 12.5749 78.6044 12.7175 78.6277 12.807C78.6416 12.8601 78.726 12.7539 78.7633 12.7137C78.8906 12.5764 78.9995 12.4204 79.1212 12.278C79.4412 11.9037 79.7692 11.5395 80.1103 11.1844C80.2948 10.9924 80.49 10.7518 80.7282 10.6232C81.0138 10.469 81.3028 10.3509 81.6262 10.3509C81.6545 10.3509 81.7573 10.3342 81.7807 10.3575C81.8243 10.4012 81.672 10.5126 81.6562 10.5243C81.3154 10.7776 80.9277 10.9492 80.6438 11.2755C80.2893 11.6831 79.9814 12.1691 79.7636 12.6625C79.6887 12.8321 79.6116 12.9942 79.608 13.1827C79.6068 13.2429 79.6368 13.4017 79.598 13.4561C79.5648 13.5026 79.588 13.3421 79.588 13.2849C79.588 13.0536 79.586 12.8211 79.618 12.5914C79.7053 11.9648 80.0024 11.3906 80.4115 10.9143C80.7441 10.5272 81.1086 10.1826 81.5696 9.95523C81.8923 9.79606 82.2245 9.70213 82.5776 9.64627C82.857 9.60207 83.1264 9.48744 83.4067 9.45956C83.7788 9.42253 84.1684 9.46024 84.5358 9.51957C84.9841 9.59197 85.4626 9.63762 85.8984 9.76852C86.1196 9.835 86.398 9.90784 86.5396 10.103C86.8255 10.4971 86.9735 10.9577 87.2165 11.3756C87.217 11.3766 87.2857 11.4798 87.2453 11.4589C87.133 11.4007 87.0358 11.3072 86.9319 11.2355C86.675 11.0581 86.3978 10.9096 86.1384 10.7354C85.8519 10.543 85.5874 10.4979 85.2504 10.4698C85.2086 10.4663 85.084 10.4509 85.126 10.4509C85.1804 10.4509 85.2349 10.4509 85.2893 10.4509" stroke="white" stroke-width="2" stroke-linecap="round"/>
<path d="M87.0098 12.1513C87.0098 12.0528 86.9256 12.3302 86.8698 12.4113C86.7575 12.5746 86.5884 12.6689 86.4475 12.8025C86.4035 12.8442 86.3379 12.8436 86.2808 12.8714C86.1755 12.9226 86.0726 12.9805 85.9651 13.027C85.8521 13.076 85.7622 13.16 85.6495 13.2115C85.602 13.2332 85.5599 13.217 85.545 13.2715C85.5101 13.3995 86.2792 13.2231 86.3519 13.2071C86.914 13.0833 87.5696 12.9619 88.0301 12.5869C88.284 12.3801 88.4383 11.9896 88.5502 11.6911C88.6413 11.4483 88.7446 11.2009 88.7658 10.9399C88.7761 10.813 88.7717 10.7038 88.8058 10.5798C88.8461 10.4329 88.8356 10.2882 88.8547 10.1397C88.8684 10.0332 88.9415 10.0508 89.0303 10.0508C89.1989 10.0508 89.2961 10.1155 89.3859 10.2641C89.5413 10.5211 89.637 10.8167 89.7816 11.081C90.127 11.7124 90.5531 12.2949 90.8885 12.9303C91.0734 13.2807 91.2068 13.6511 91.3753 14.0084C91.3791 14.0164 91.4142 14.0873 91.4142 14.0873C91.3495 13.9303 91.2726 13.7764 91.2008 13.6227C90.8383 12.8464 90.4253 12.0713 90.215 11.2355C90.1935 11.15 90.1255 10.9139 90.1917 10.9721C90.3362 11.0993 90.4385 11.3476 90.5273 11.51C91.0186 12.4085 91.3148 13.3687 91.6643 14.3262C91.8333 14.7894 92.0314 15.2376 92.2511 15.6788C92.3566 15.8907 92.5114 16.1151 92.5822 16.3434C92.6008 16.4031 92.4761 16.2756 92.4311 16.2322C92.1564 15.9674 91.863 15.7236 91.5842 15.4632C90.892 14.8165 90.1658 14.0978 89.7371 13.2404C89.7108 13.1877 89.6811 13.1303 89.6704 13.0715C89.6555 12.9891 89.6684 13.2391 89.6616 13.3226C89.624 13.7825 89.513 14.231 89.4059 14.6785C89.2687 15.2519 89.1329 15.8263 88.9836 16.3967C88.9246 16.6222 88.8618 16.8462 88.7836 17.0658C88.7475 17.1669 88.7533 16.958 88.7524 16.9502C88.6235 15.7252 88.6034 14.4865 88.5857 13.256C88.5794 12.8107 88.5749 12.3648 88.5502 11.9201C88.5472 11.8658 88.5589 11.7092 88.5346 11.7578C88.5028 11.8214 88.5335 11.9001 88.5346 11.9712C88.5547 13.2389 88.4511 14.5168 88.2123 15.7632C88.1755 15.9556 88.1344 16.155 88.0745 16.3423C88.04 16.45 88.063 16.1163 88.0567 16.0033C88.0091 15.1461 87.8364 14.3037 87.6844 13.4605C87.6785 13.4277 87.6528 13.2677 87.6322 13.2137C87.6071 13.1483 87.6 13.2555 87.6 13.256C87.5546 13.5593 87.5402 13.8668 87.4944 14.1706C87.4275 14.6138 87.3356 15.0528 87.2099 15.4832C87.1466 15.6998 87.0835 16.0262 86.9365 16.21C86.8657 16.2984 86.8723 15.9898 86.8709 15.8766C86.8671 15.5639 86.864 15.2522 86.8498 14.9397C86.8385 14.6906 86.8188 14.4392 86.8609 14.1917C86.8854 14.0478 86.9115 14.0505 86.9409 14.1906C87.0514 14.717 87.0257 15.288 86.9876 15.821C86.9724 16.034 86.9497 16.2453 86.8909 16.4512C86.8684 16.5298 86.8468 16.6286 86.7864 16.689C86.6937 16.7817 86.5242 16.8081 86.4052 16.8557C86.1321 16.965 85.8754 17.1322 85.6306 17.2925C85.3446 17.4797 85.0271 17.6107 84.7448 17.8004C84.604 17.895 84.4724 17.9793 84.3092 18.0315C84.0947 18.1002 83.8673 18.1292 83.649 18.1838C83.2749 18.2773 82.9212 18.4083 82.5821 18.5928C82.2216 18.7889 81.9959 19.0044 81.8408 19.3908C81.6355 19.9022 81.6059 20.5099 81.7863 21.0356C81.8752 21.2944 82.0458 21.6201 82.3398 21.6735C82.5452 21.7109 82.6264 21.6633 82.7644 21.4913C83.1185 21.0497 83.2467 20.4496 83.4823 19.9442C83.8183 19.2236 84.2898 18.6452 85.0027 18.2705C86.0227 17.7344 87.1173 17.5603 88.2412 17.3881C88.7616 17.3083 89.4424 17.2718 89.8349 16.8657C90.0574 16.6356 90.2291 16.3259 90.3417 16.0277C90.3881 15.9049 90.2409 16.2708 90.1772 16.3856C89.8914 16.9009 89.5412 17.3888 89.1692 17.8448C88.8594 18.2247 88.5263 18.585 88.1845 18.9362C88.0818 19.0417 87.9599 19.2076 87.8322 19.2874C87.6838 19.3802 88.0441 19.0083 88.159 18.8762C88.5058 18.4772 88.882 18.1047 89.247 17.7226C89.8895 17.0498 90.5754 16.3807 91.0786 15.5932C91.1688 15.4519 91.1624 15.6244 91.1708 15.7143C91.2054 16.0829 91.2143 16.4569 91.203 16.8268C91.1886 17.3002 91.1284 17.7677 91.0541 18.2349C91.0457 18.2879 91.014 18.784 90.9374 18.8173C90.8873 18.8391 90.7525 18.3148 90.7496 18.3038C90.6513 17.9299 90.5733 17.5481 90.5507 17.1613C90.5333 16.8651 90.5373 16.5488 90.6329 16.2645C90.6413 16.2394 90.723 15.9982 90.7952 16.0322C90.922 16.0919 91.0376 16.3912 91.0952 16.499C91.2905 16.8641 91.4657 17.2421 91.6509 17.6126" stroke="white" stroke-width="2" stroke-linecap="round"/>
<path d="M91.7909 13.6117C92.1272 13.6529 92.2917 14.1222 92.4222 14.3785C92.7588 15.0397 93.0862 15.7079 93.4024 16.379C93.7347 17.0842 94.0326 17.7999 94.3916 18.4929C94.6094 18.9133 94.8508 19.3173 95.0962 19.722C95.5187 20.4189 96.0096 21.0706 96.412 21.7803C96.6172 22.142 96.8711 22.4738 97.0633 22.845C97.3862 23.4687 97.9345 23.919 98.3836 24.4498C98.4792 24.5628 98.5127 24.6857 98.5926 24.8055C98.6839 24.9424 98.8114 25.0294 98.9315 25.1344C99.0015 25.1956 99.0852 25.2285 99.1405 25.3145C99.1806 25.3769 99.0557 25.3427 99.0327 25.3389C98.86 25.3107 98.7096 25.2299 98.5525 25.1544C98.0885 24.9313 97.6319 24.7186 97.1878 24.4565C96.893 24.2825 96.5745 24.1516 96.2631 24.0097C95.5973 23.7064 94.9331 23.4186 94.2804 23.0873C93.9263 22.9075 93.5758 22.7195 93.2202 22.5427C92.729 22.2985 92.2159 22.1237 91.7043 21.9292C91.3303 21.7871 90.9506 21.6567 90.5851 21.4936C90.2956 21.3644 90.0135 21.2448 89.7027 21.1757C89.5245 21.1361 89.3338 21.1535 89.1525 21.1535C88.8013 21.1535 88.4501 21.1535 88.099 21.1535C87.7261 21.1535 87.3513 21.1424 86.9787 21.1579C86.8024 21.1653 86.6177 21.1762 86.4497 21.2346C86.4063 21.2497 85.996 21.4207 86.0851 21.4491C86.5505 21.5976 87.0532 21.663 87.5344 21.7381C87.9739 21.8067 88.4126 21.8584 88.8569 21.8825C89.1702 21.8995 89.4837 21.8871 89.7971 21.8981C90.2132 21.9127 90.6156 21.9758 91.0196 22.0748C91.349 22.1556 91.6761 22.2512 91.971 22.4227C92.2462 22.5827 92.5189 22.7389 92.809 22.8717C93.0958 23.003 93.3917 23.1041 93.6869 23.214C93.8185 23.263 93.9411 23.314 94.0826 23.314C94.2015 23.314 94.2889 23.2618 94.3271 23.1428C94.4733 22.6877 94.2153 22.1233 94.0315 21.7181C93.5872 20.739 92.9876 19.832 92.4433 18.9074C92.0428 18.227 91.5287 17.5233 91.3175 16.7502C91.2766 16.6006 91.3876 16.7461 91.4131 16.778C91.686 17.1207 91.9392 17.4849 92.1899 17.8438C92.4899 18.2733 92.7662 18.7168 93.049 19.1575C93.4459 19.7757 93.8656 20.3766 94.2938 20.9734C94.6377 21.453 94.9964 21.9312 95.2818 22.4493C95.3124 22.505 95.3464 22.637 95.3518 22.5027C95.3629 22.2284 95.4505 21.9604 95.4896 21.6892C95.517 21.499 95.5976 21.2584 95.4296 21.1179C94.6748 20.4869 93.7564 20.2004 92.7756 20.161C92.5024 20.1501 91.9257 20.0847 91.7443 20.3711C91.6096 20.5837 91.6355 20.9556 91.7176 21.1813C91.9342 21.7771 93.1101 22.1165 93.3202 21.3391C93.5125 20.6275 92.7515 20.0479 92.191 19.7932" stroke="white" stroke-width="2" stroke-linecap="round"/>
<path d="M78.5627 45.447C78.9885 45.7466 79.3185 46.1218 79.6072 46.5495C79.7541 46.7672 79.9466 47.0181 80.173 47.1539C80.4495 47.3199 80.6655 47.5582 80.9611 47.71C81.0248 47.7427 81.1599 47.7911 81.1836 47.8503C81.2936 48.1253 81.5257 48.3407 81.6429 48.6143C81.7599 48.8871 81.8136 49.1376 82.0008 49.3783C82.3225 49.7919 82.436 50.2361 82.436 50.7564" stroke="white" stroke-width="2" stroke-linecap="round"/>
<path d="M82.1749 49.8425C82.2624 50.2118 82.2973 50.5798 82.3272 50.9571C82.3588 51.3541 82.4058 52.0009 82.2305 52.3666C82.0586 52.7255 81.8221 53.0683 81.6334 53.4208C81.4669 53.7318 81.3105 54.051 81.1401 54.3589C81.045 54.5308 80.9999 54.7216 80.9999 54.9174C80.9999 54.9594 80.9671 55.2391 81.0579 55.2147C81.3573 55.1346 81.6243 54.6093 81.7881 54.383C82.4268 53.5006 82.9839 52.6938 83.0356 51.5736C83.0568 51.1152 83.0453 50.6543 83.0453 50.1955C83.0453 49.8587 83.1111 49.9746 83.2484 50.2149C83.6606 50.9361 84.0128 51.7307 84.2397 52.5286C84.4193 53.1604 84.6135 53.7648 85.0013 54.3008C85.169 54.5327 85.3421 54.8533 85.6468 54.9246C86.1506 55.0425 85.7832 53.852 85.7242 53.6722C85.5737 53.2143 85.375 52.7756 85.0545 52.415C84.8731 52.211 84.727 51.9585 84.6096 51.7139C84.52 51.5271 84.391 51.368 84.2929 51.1868C84.2447 51.0979 84.4506 51.4952 84.4645 51.5204C84.7801 52.0918 85.2412 52.5618 85.5428 53.1427C85.8005 53.639 86.1028 54.0495 86.2851 54.5861C86.4133 54.9636 86.5403 55.3353 86.655 55.7176C86.7413 56.0054 86.7506 56.2363 86.9451 56.4816C87.1419 56.7297 87.3863 56.9257 87.6487 57.1006C87.7649 57.178 87.7758 57.3515 87.7357 57.4826C87.6791 57.668 87.2885 57.7558 87.1289 57.7824C86.5997 57.8706 86.0872 57.6435 85.613 57.4391C84.7997 57.0885 83.9124 56.9018 83.0888 56.5687C83.0159 56.5392 82.4233 56.3423 82.7213 56.3293C83.4744 56.2966 84.2484 56.2639 84.994 56.1528C85.415 56.0901 86.3583 55.8167 86.4737 56.4671C86.508 56.6606 86.444 56.7704 86.2367 56.7621C85.8136 56.7452 85.3907 56.5752 84.9602 56.5445" stroke="white" stroke-width="2" stroke-linecap="round"/>
<path d="M57.4559 46.4915C57.5334 47.5153 57.4435 48.4304 57.1513 49.417C56.8593 50.4033 56.5475 51.3838 56.2519 52.369C56.1784 52.614 56.2867 52.3671 56.3051 52.3231C56.4794 51.9057 56.6072 51.4731 56.7065 51.032C56.997 49.7409 57.172 48.3538 57.1416 47.0283C57.1382 46.8758 57.0904 46.4551 57.0159 46.5882C56.8801 46.8309 56.7975 47.1079 56.7089 47.3692C56.5089 47.9584 56.3046 48.5343 56.0174 49.0882C55.8436 49.4234 55.6518 49.7512 55.4492 50.0698C55.4064 50.1371 55.2693 50.4075 55.1664 50.4397C55.0484 50.4766 55.1966 50.1932 55.2316 50.0746C55.4103 49.4704 55.5843 48.8661 55.7442 48.2565C55.9326 47.5383 56.1057 46.8351 56.1939 46.0998C56.2209 45.8749 56.2102 46.5527 56.2157 46.7792C56.2389 47.7373 56.2457 48.6957 56.2592 49.6539C56.2721 50.5726 56.2809 53.3289 56.2809 52.4101C56.2809 51.1482 56.2723 49.8893 56.2036 48.6288C56.2021 48.6027 56.1116 47.0409 55.9473 47.1395C55.7884 47.2348 55.6944 47.6056 55.6547 47.7415C55.4656 48.3892 55.4117 49.0759 55.4251 49.7482C55.4291 49.9528 55.4165 51.1884 55.8989 51.0562C56.2252 50.9668 56.5185 50.6098 56.7161 50.3647C57.299 49.6418 57.6973 48.7868 58.0991 47.9567C58.1581 47.8347 59.1159 45.6096 59.2983 45.713C59.4535 45.801 59.4647 46.4311 59.4748 46.5302C59.5468 47.2426 59.5424 47.9577 59.5715 48.6723C59.5745 48.7478 59.7208 50.4503 59.8785 50.3212C60.0661 50.1678 60.1539 49.6677 60.217 49.4702C60.4581 48.7157 60.6971 47.9601 60.9278 47.2023C61.0824 46.6947 61.2256 46.1829 61.421 45.6888C61.4687 45.5683 61.6066 45.2674 61.6628 45.3842C61.797 45.6634 61.8292 46.0642 61.8659 46.361C61.9615 47.1337 61.9718 47.9147 62.0037 48.6917C62.0193 49.0712 62.0293 49.4547 62.069 49.8328C62.0746 49.8863 62.0809 49.94 62.0932 49.9924C62.1133 50.0782 62.1303 50.0875 62.1609 49.9924C62.4603 49.0609 62.4345 47.9661 62.5139 46.9992C62.5162 46.9711 62.5912 45.9586 62.5912 46.448C62.5912 47.0549 62.5912 47.6617 62.5912 48.2686C62.5912 48.7796 62.7138 48.253 62.7387 48.063C62.8095 47.524 62.8192 46.9904 62.7411 46.4528C62.7263 46.3508 62.6507 46.0521 62.6879 46.1482C62.8171 46.4818 62.9704 46.8018 63.0917 47.1395C63.2669 47.6269 63.3136 48.0728 63.6574 48.4765C63.9581 48.8294 64.1537 49.2781 64.5931 49.4943C64.8038 49.598 64.3751 49.0977 64.3368 49.0495C63.9642 48.5802 63.586 48.1098 63.2561 47.6085C62.7993 46.9145 62.8367 46.1254 62.6783 45.3455C62.6179 45.0484 62.9591 45.6174 62.9732 45.6501C63.277 46.3526 63.4542 47.1221 63.6961 47.8479C63.7729 48.0781 63.9213 49.0592 64.2981 49.0592C64.4596 49.0592 64.5585 49.1112 64.6995 49.1897C64.951 49.3298 65.2386 49.4246 65.5046 49.5355C66.1765 49.8154 66.6686 50.3837 67.3566 50.6283C67.8972 50.8205 68.4965 51.0008 68.9982 51.2786C69.1806 51.3797 69.3629 51.481 69.5446 51.5833C69.6012 51.6151 69.9784 51.8179 69.8638 51.5954C69.7312 51.3379 69.4267 51.1774 69.1916 51.032C68.6736 50.7116 68.1314 50.4077 67.5379 50.2535C67.2902 50.1892 67.0464 50.1305 66.8029 50.0504C66.6009 49.9839 66.4509 49.9086 66.7546 50.0359C67.3378 50.2805 67.9006 50.6104 68.4591 50.9063C68.9003 51.1401 69.3302 51.4418 69.7816 51.651C70.2068 51.848 70.6225 51.9944 71.0315 52.2312C71.5339 52.522 72.0836 52.6935 72.591 52.9662C72.8286 53.0939 73.0995 53.1301 73.3211 53.2902C73.4703 53.3979 73.6331 53.5379 73.795 53.6263C73.8632 53.6635 74.0438 53.9749 73.9836 53.9768C72.8359 54.0139 71.6978 54.0273 70.5504 53.9575C69.4864 53.8927 68.4525 54.124 67.3928 54.1944C66.3642 54.2628 65.4768 54.41 64.5399 54.8424C64.2489 54.9767 64.7787 55.0557 64.8905 55.0938C65.7468 55.386 66.5607 55.4822 67.4702 55.4371C68.3001 55.396 69.1716 55.2323 69.9266 54.8714C70.0999 54.7886 70.4402 54.6634 70.1346 54.5837C69.7355 54.4796 69.321 54.4888 68.9112 54.4773C67.5718 54.4397 66.2125 54.4078 64.8784 54.5523C64.5407 54.5888 64.1992 54.6381 63.8678 54.7142C63.7659 54.7377 63.5339 54.8896 63.5632 54.7892C63.5971 54.6728 63.9806 54.4708 64.0346 54.4386C64.6573 54.0669 65.3314 53.7944 65.9881 53.4909C66.5062 53.2514 67.0212 53.0029 67.5089 52.7051C67.6685 52.6076 67.8716 52.4878 67.9924 52.3352C68.1516 52.1342 67.6948 52.1661 67.625 52.178C66.8391 52.3129 66.0451 52.5715 65.2749 52.7776C64.9766 52.8575 64.6728 52.9438 64.3997 53.0919C64.1808 53.2107 64.3577 53.1429 64.4456 53.0895C64.996 52.7554 65.5682 52.4913 66.1961 52.3352C66.6177 52.2304 67.0418 52.1793 67.475 52.1587C67.5698 52.1542 68.0926 52.0666 68.1617 52.2167C68.3002 52.5177 68.1618 53.0088 68.1278 53.3144C68.1019 53.5478 68.0837 53.7807 68.0771 54.0155C68.0768 54.0238 68.0361 54.3432 68.1303 54.2114C68.3943 53.8417 68.542 53.4047 68.829 53.046C69.0156 52.8127 69.2371 52.6216 69.4721 52.4392C69.4736 52.438 69.889 52.1231 69.8686 52.1152C69.596 52.0096 69.0633 52.3268 68.8193 52.4005C67.6018 52.7681 66.2998 52.7148 65.0428 52.7148C64.4514 52.7148 63.8595 52.7186 63.2682 52.7051C63.0848 52.7009 62.4429 52.7718 62.2721 52.6181C62.2046 52.5573 62.3249 52.2984 62.3374 52.2699C62.5148 51.865 62.8051 51.5115 63.1304 51.2158C63.5569 50.828 64.1249 50.599 64.6681 50.4252C65.0598 50.2998 65.1226 50.5003 65.1298 50.8918C65.1429 51.6004 64.8464 52.3426 64.5254 52.9614C64.4783 53.0523 63.6394 54.4495 63.4882 54.1026C63.0816 53.1697 63.6893 51.4523 64.6656 51.0997C64.9712 50.9894 65.0501 51.3464 65.125 51.5688C65.2868 52.049 65.4593 52.6015 65.3088 53.1064C65.2255 53.3858 65.0761 53.3242 64.8542 53.1911C64.288 52.8513 63.7852 52.2737 63.5632 51.6461C63.4424 51.3047 63.4861 50.907 63.8388 50.7322C64.0847 50.6104 64.5557 50.502 64.6898 50.8338C65.1093 51.8716 63.9403 52.4511 63.0893 52.3908C62.5925 52.3556 62.08 52.1484 61.8659 51.6631C61.7413 51.3806 61.6431 50.8924 61.7982 50.6017C61.951 50.3152 61.8141 51.2586 61.7353 51.5736C61.5116 52.4687 60.9098 53.2982 60.2267 53.9019C60.1537 53.9664 59.3722 54.6461 59.349 54.4144C59.2754 53.6783 59.277 52.8489 59.3998 52.12C59.4554 51.7898 59.6364 51.2079 60.0864 51.2641C60.6862 51.3391 60.9894 52.288 61.0971 52.7655C61.238 53.3912 61.1917 54.0929 60.6715 54.5377C60.1839 54.9548 59.6591 54.7135 59.3321 54.2379C59.0271 53.7943 58.8141 53.1447 58.9791 52.6132C59.2325 51.7971 59.8997 51.3776 60.6111 50.9982C61.095 50.7401 60.4881 51.4818 60.4128 51.5736C59.6839 52.4627 58.7084 53.2154 57.7026 53.7641C57.2589 54.0061 56.6823 54.3083 56.1697 54.088C55.6374 53.8594 55.1721 53.3124 54.852 52.8478C54.4814 52.3097 54.1959 51.4028 53.4836 51.24C53.1355 51.1604 52.779 51.2089 52.4271 51.1578C52.2507 51.1321 51.8698 51.0593 52.033 51.3149C52.4818 52.018 53.3267 52.5401 54.0324 52.9565C54.4949 53.2295 54.3543 53.7447 54.3878 54.2283C54.406 54.4891 54.4096 54.7479 54.4096 55.0092C54.4096 55.0593 54.4447 55.2728 54.3854 55.2147C54.0335 54.87 53.6887 54.5019 53.37 54.1267C53.3546 54.1087 52.9327 53.5465 53.0025 53.5465C53.149 53.5465 53.4789 53.8188 53.3313 53.5175C53.2982 53.4499 53.2534 53.36 53.1814 53.324C53.0016 53.2341 53.1582 53.7786 53.1741 53.8245C53.4033 54.4849 54.2135 54.6663 54.7239 55.0648C55.1938 55.4317 55.6675 56.169 55.3791 56.7959C55.2522 57.0717 54.4343 57.6035 54.3419 57.0812C54.3029 56.8606 54.3203 55.083 54.076 55.1156C53.8673 55.1434 53.6545 55.3681 53.515 55.5048C53.3026 55.7131 53.0582 55.9267 52.9058 56.1866C52.8972 56.2013 53.49 56.4776 53.5634 56.53C53.9081 56.7762 54.0826 57.1541 53.9986 57.5696C53.853 58.2895 53.4069 58.9387 53.2249 59.6537C53.153 59.936 53.1979 60.4462 53.017 60.6788C52.8146 60.939 52.4411 60.885 52.2288 60.6353C52.0327 60.4045 52.1941 59.9257 52.3158 59.702C52.5472 59.277 52.9454 59.0513 53.3047 58.7519C53.5995 58.5062 53.4815 58.1897 53.4183 57.8597C53.3822 57.6712 53.5501 57.2994 53.3385 57.5938C53.18 57.8143 52.9646 58.0148 52.855 58.2659C52.6967 58.6287 52.8115 58.954 52.988 59.2813C53.2791 59.8214 53.9036 60.2862 54.0349 60.8988C54.0879 61.1462 54.0501 61.4209 53.9696 61.658C53.9352 61.7591 53.6223 62.3627 53.6988 62.4437C53.7969 62.5476 54.5927 62.0496 54.6852 61.9989C55.4654 61.5714 56.216 61.0918 56.9942 60.6595C57.6224 60.3104 58.2597 60.0498 58.9356 59.8084C59.9516 59.4456 60.9124 58.9983 61.8804 58.5222C63.2897 57.829 64.8228 57.3988 66.1816 56.6122C66.3116 56.5369 67.4569 55.8379 67.5524 56.0077C67.6774 56.23 67.5475 56.609 67.4025 56.7862C67.0443 57.2241 66.3235 57.4719 65.8407 57.7364C65.367 57.9959 64.8889 58.2409 64.3852 58.4376C63.706 58.7028 62.9776 58.8228 62.3349 59.1798C61.6097 59.5827 60.8921 60.027 60.2436 60.5458C59.5251 61.1207 58.6921 61.5889 57.9177 62.0859C57.6323 62.2691 57.3388 62.4231 57.0715 62.6347C57.0454 62.6555 56.7048 62.9687 56.7451 62.9756C57.0084 63.021 57.4587 62.6147 57.6494 62.4873C58.3951 61.9889 59.1128 61.4457 59.8398 60.9206C60.3048 60.5847 60.663 60.201 61.0511 59.7867C61.479 59.3298 61.9649 59.0056 62.5284 58.7349C63.3936 58.3194 64.3026 58.0466 65.2169 57.763C66.2052 57.4565 67.1932 57.1289 68.2125 56.941C68.5868 56.8719 69.0021 56.8338 69.3536 56.675C69.5832 56.5713 69.7702 56.5046 70.0282 56.501C70.6359 56.4923 71.4206 56.3776 71.9865 56.6291C72.0272 56.6472 72.3092 56.7185 72.151 56.7185C71.8073 56.7185 71.4584 56.7022 71.1162 56.7379C70.2816 56.8249 69.2914 57.113 68.5775 57.5889C67.6535 58.2049 66.669 58.6482 65.6134 58.9815C65.0022 59.1745 64.3829 59.3522 63.7759 59.557C63.2879 59.7216 62.7779 59.8864 62.3277 60.1396C61.7663 60.4554 61.1879 60.7621 60.6038 61.0366C59.9536 61.3422 59.2553 61.6697 58.6745 62.0932C58.087 62.5216 57.4761 62.9265 56.8273 63.2561C56.346 63.5006 55.6735 63.7972 55.3574 64.257C55.2293 64.4433 55.1929 64.6485 55.1929 64.8712C55.1929 65.2099 55.9216 64.9444 56.0778 64.8881C56.6377 64.6863 57.0912 64.3027 57.5696 63.9621C58.1745 63.5314 58.7264 63.0946 59.2064 62.5259C59.4446 62.2438 59.7214 62.069 59.9704 61.82C60.1115 61.6789 59.7076 62.1206 59.5836 62.2769C59.255 62.6909 58.9695 63.1399 58.718 63.6043C58.3588 64.2675 57.8489 64.8008 57.3713 65.3789C56.9974 65.8316 56.5829 66.3523 56.0972 66.6845C55.0998 67.3665 53.934 68.0529 52.7462 68.3043C52.5723 68.3412 51.583 68.5907 51.4358 68.3865C51.3746 68.3016 51.408 68.0796 51.414 67.9949C51.4365 67.6759 51.5117 67.3699 51.6099 67.0665C51.8098 66.4485 52.0635 65.8417 52.3424 65.2556C52.6221 64.6678 53.0283 64.125 53.2588 63.5172C53.4147 63.1059 53.6353 62.458 53.4667 62.0134C53.3045 61.5858 52.7308 62.1158 52.5818 62.2648C52.0295 62.8172 51.728 63.4885 51.3439 64.1507C51.2405 64.329 51.0866 64.5383 51.1553 64.1748C51.2905 63.4601 51.6615 62.8693 52.1128 62.3084C52.3092 62.0641 52.9968 61.4194 52.7752 61.6411C52.5154 61.9009 52.1989 62.0987 51.9048 62.3156C51.2386 62.8071 50.8261 63.5195 50.1882 64.0298" stroke="white" stroke-width="2" stroke-linecap="round"/>
<path d="M51.4068 63.1158C51.1602 63.4447 51.0058 63.8344 50.7661 64.17C50.3233 64.79 49.6794 65.288 49.0399 65.6907C47.7726 66.4886 46.4203 67.1002 44.9974 67.5524C44.6582 67.6602 44.3163 67.7613 43.9892 67.903C43.6902 68.0324 43.5035 68.2238 43.2494 68.4155C43.0291 68.5818 42.766 68.6967 42.5918 68.9184C42.5727 68.9427 43.3116 68.4866 43.4041 68.43C44.4929 67.7641 45.6777 67.259 46.8034 66.6602C47.9276 66.0623 49.1948 65.4728 50.1399 64.6003C50.4649 64.3003 50.7355 63.8625 51.1336 63.6502C51.3203 63.5506 50.6572 64.3434 50.6114 64.3852C49.9406 64.9979 49.1317 65.3913 48.2976 65.7294C48.2235 65.7594 48.1493 65.789 48.0752 65.8189C48.0235 65.8397 47.9453 65.9315 47.9204 65.8817C47.9136 65.868 47.9432 65.861 47.9543 65.8503C48.2894 65.528 47.6666 66.1231 48.2178 65.5916C48.909 64.9251 49.7306 64.4374 50.5582 63.9596C50.8972 63.7639 51.2389 63.5643 51.5954 63.4011C51.6564 63.3732 51.7408 63.3334 51.813 63.3334C51.834 63.3334 51.8232 63.3308 51.8033 63.36C51.6933 63.5214 51.5997 63.6935 51.4987 63.8605C50.7862 65.0382 50.0098 66.1801 49.2647 67.3372C48.5846 68.3934 47.8252 69.4416 47.287 70.5818C47.0493 71.0853 47.7406 70.5216 47.8334 70.4319C48.7225 69.5725 49.4872 68.5792 50.3599 67.6999C50.9443 67.1111 51.55 66.5449 52.1466 65.9688C52.4512 65.6747 52.7947 65.3772 53.0509 65.0355C53.0708 65.009 53.1015 64.9816 53.0992 64.9485C53.0943 64.8767 52.9717 65.019 52.9203 65.0694C52.589 65.3938 52.3082 65.7744 52.033 66.1453C51.0553 67.4628 50.1589 68.8392 49.3034 70.2385C49.2816 70.2742 48.9739 70.762 48.9214 70.8985C48.8658 71.043 49.2293 70.8246 49.3566 70.7366C50.7139 69.7979 52.0427 68.7754 53.3217 67.7337C53.9252 67.2422 54.5303 66.7372 55.0624 66.167C55.0833 66.1447 55.4095 65.8249 55.3816 65.7028C55.3549 65.5862 55.1644 65.8148 55.0842 65.9035C54.7854 66.2337 54.565 66.6253 54.3516 67.0132C53.6275 68.3299 52.9456 69.6683 52.1998 70.9735C52.1608 71.0418 51.5331 72.035 51.9387 71.4377C52.5782 70.4961 53.2985 69.6104 53.9068 68.6476C54.2075 68.1716 54.474 67.6817 54.6877 67.1607C54.7014 67.1274 54.8565 66.5621 54.9464 66.5249C55.0166 66.4958 54.9687 66.6762 54.9657 66.7521C54.9537 67.0556 54.9207 67.3597 54.8859 67.6612C54.8781 67.7296 54.6919 68.8799 54.736 68.8894C54.8217 68.9078 55.0705 68.5279 55.0818 68.5122C55.3193 68.1819 55.529 67.8305 55.7467 67.4871C55.9027 67.2409 56.0522 66.9941 56.1988 66.7424C56.2825 66.5987 56.2761 66.7142 56.2761 66.8295C56.2761 67.8617 55.9404 68.8297 55.7249 69.8275C55.7099 69.8969 55.6909 70.0962 55.7346 70.0402C55.9359 69.7823 55.866 69.2603 55.8796 68.9571C55.891 68.7049 55.897 68.4533 55.9304 68.2028C55.9607 67.9754 55.9696 68.6601 55.9739 68.8894C55.9883 69.6592 55.936 70.4367 55.9788 71.2056C55.9954 71.5044 56.1339 71.7964 56.1964 72.0881C56.2656 72.4112 56.334 72.7953 56.4744 73.0963C56.538 73.2325 56.512 73.4706 56.4889 73.6137C56.4445 73.8888 56.3348 73.9521 56.0876 73.9521C55.6639 73.9521 55.2294 73.9237 54.8086 73.9763C54.6793 73.9925 54.3743 74.0019 54.2743 74.102C54.2733 74.103 54.8671 74.0402 54.9077 74.0295C55.5326 73.8644 56.1962 73.7074 56.7839 73.4299C57.0903 73.2852 56.502 73.5374 56.4357 73.5701C56.1247 73.7239 55.819 73.7339 55.5025 73.8651C55.1147 74.0259 54.7091 74.1734 54.3129 74.31C53.8759 74.4607 53.4173 74.559 52.9735 74.6896C52.4869 74.8327 52.0206 75.0326 51.5132 75.0861C51.0389 75.136 50.5811 75.2443 50.1012 75.2577C49.8122 75.2658 49.5292 75.333 49.2405 75.3544C48.8466 75.3836 48.4584 75.4055 48.0703 75.485C47.251 75.6528 46.4352 75.8551 45.626 76.0628C45.2592 76.157 44.1319 76.3022 44.4993 76.2103C44.7579 76.1457 44.9843 75.879 45.1836 75.7219C45.7542 75.2724 46.342 74.8644 46.9558 74.4768C48.0576 73.7809 48.7662 72.551 49.6153 71.5852C49.8441 71.3249 50.0514 71.0563 50.2463 70.7704C50.351 70.6168 50.069 71.3125 50.0239 71.3797C49.569 72.0572 48.9352 72.6165 48.3556 73.1833C48.0741 73.4586 47.2553 74.2804 47.6013 74.0924C47.6737 74.053 47.8252 73.8686 47.8527 73.8361C48.1817 73.4477 48.497 73.0577 48.8561 72.6949C49.9376 71.6023 51.1537 70.6583 52.2168 69.5446C52.5464 69.1993 52.872 68.8481 53.1911 68.4929C53.2475 68.4301 53.39 68.2034 53.4885 68.1689C53.6109 68.1261 53.6173 69.2693 53.6142 69.3439C53.5665 70.4881 53.1658 71.5946 52.5383 72.5402C52.3915 72.7614 52.2613 73.0351 52.0499 73.2026C51.7788 73.4176 51.4065 73.5151 51.0732 73.575C50.9423 73.5985 50.4024 73.7172 50.58 73.4009C50.8986 72.8332 51.6943 72.3961 52.2143 72.0518C52.3227 71.98 54.043 70.8703 54.0518 70.8816C54.1357 70.9894 52.8542 72.0481 52.7753 72.1098C52.0856 72.6488 51.3432 73.0873 50.5775 73.5073C50.2641 73.6792 49.9458 73.8474 49.6467 74.044C49.5715 74.0935 49.4514 74.1624 49.4146 74.2544C49.3325 74.4597 49.5256 74.2889 49.5742 74.2302C50.059 73.6439 50.5913 73.3346 51.3077 73.0672C51.9325 72.8341 52.5815 72.6116 53.225 72.4338C53.5058 72.3562 53.5747 72.566 53.7133 72.7674C54.0232 73.2176 54.3448 72.8288 54.5305 72.4435C54.7094 72.0723 54.8161 71.6699 54.8593 71.2612C54.8647 71.211 54.8983 70.5174 54.8642 70.6882C54.7995 71.0117 54.7553 71.3328 54.6442 71.6456C54.5398 71.9395 54.3569 72.2469 54.3734 72.5692C54.3856 72.8072 54.5592 72.7059 54.6563 72.5764C54.9725 72.1548 55.1568 71.5438 55.1954 71.0243C55.266 70.0754 54.5161 69.4967 53.6215 69.8347C53.1281 70.0211 52.7341 70.4037 52.3739 70.7752C51.8084 71.3586 51.298 72.0029 50.8362 72.6707C50.455 73.222 50.1261 73.8061 49.6854 74.3148C49.2672 74.7976 48.7195 75.0805 48.1429 75.3351C47.6011 75.5743 47.0494 75.7897 46.5085 76.0314C46.2085 76.1655 45.813 76.2713 45.6188 76.5585C45.2234 77.1431 45.652 77.6568 45.8702 78.2074C45.9305 78.3594 45.9991 78.5137 46.008 78.6788C46.0125 78.7615 45.9789 79.0575 46.0636 79.114C46.2091 79.211 46.9396 78.1886 47.0041 78.101C47.4419 77.5068 47.7063 76.8357 48.0534 76.191C48.0696 76.1609 48.504 75.4922 48.5104 75.4995C48.6257 75.6313 48.5174 76.1142 48.4838 76.2611C48.3096 77.0232 47.9067 77.8465 47.5118 78.5192C47.0019 79.3881 46.7825 80.3659 46.6729 81.3649C46.6358 81.7031 46.5671 82.0138 46.5085 82.3489C46.4746 82.5425 46.2924 82.8363 46.3223 83.0307C46.3371 83.1265 46.3938 83.3047 46.5085 83.2459C47.3066 82.8366 47.5179 81.6048 47.6206 80.8088C47.7031 80.1697 47.8092 79.5481 48.0026 78.9327C48.0651 78.7339 48.1648 78.5225 48.1864 78.3137C48.1994 78.188 48.1424 78.5808 48.1332 78.6087C48.0051 78.9959 47.7717 79.3399 47.5795 79.6967C47.301 80.214 47.0397 80.7393 46.7793 81.2658C46.5477 81.7338 46.3547 82.1268 45.8629 82.3272C45.1296 82.626 44.3187 82.3618 43.7474 81.863C43.1708 81.3594 42.9475 80.5118 42.2678 80.1101C41.9821 79.9413 41.6782 79.7767 41.4216 79.5661C41.0761 79.2827 40.6823 79.1106 40.3094 78.8674C40.0276 78.6836 39.6717 78.4691 39.4487 78.217C39.3416 78.0959 39.2131 78.0153 39.1005 77.9027C38.9952 77.7973 38.9331 77.666 38.8201 77.5642C38.4984 77.2748 38.2003 76.9164 37.9569 76.5585C37.604 76.0394 37.2343 75.4249 37.0503 74.8225C36.9037 74.3428 36.8872 73.8161 36.6973 73.3525C36.5418 72.973 36.3978 72.5473 36.3927 72.134C36.3824 71.3042 37.2015 70.9194 37.795 70.5238C38.0622 70.3456 38.3801 70.3798 38.6823 70.3134C39.1827 70.2036 39.6735 69.9357 40.116 69.6873C40.6677 69.3775 41.27 69.2348 41.8616 69.0248C42.8162 68.6859 43.793 68.4213 44.7484 68.077C45.3065 67.8759 46.0848 67.4688 46.7067 67.5621C47.0801 67.6181 47.5119 68.0453 47.4393 68.4445C47.3941 68.6933 47.1011 68.8531 46.8977 68.9523C46.2197 69.283 45.4697 69.5118 44.7363 69.6776C44.0887 69.8239 43.4109 69.8907 42.7803 70.1055C42.4032 70.234 42.0324 70.4005 41.6585 70.5407C40.8645 70.8385 40.0872 71.1922 39.3326 71.5779C38.9805 71.7579 38.6329 71.9494 38.2833 72.134C38.2445 72.1545 37.9534 72.3232 38.0948 72.3854C39.2268 72.8836 40.7536 72.6586 41.9003 72.3734C42.7291 72.1671 43.5676 71.897 44.2334 71.3434C44.5424 71.0865 44.8032 70.7609 45.1836 70.606C45.5889 70.4408 46.268 70.3629 46.6874 70.5238C46.885 70.5996 46.9683 70.8591 46.992 71.0509C47.0409 71.446 46.7339 71.8825 46.465 72.1388C46.1088 72.4783 45.6018 72.6644 45.1255 72.7481C44.3025 72.8928 43.4555 72.9224 42.6256 73.0141C41.6192 73.1252 40.5798 73.2104 39.5889 73.4299C39.1458 73.5281 38.4369 73.674 38.2519 74.1673C38.178 74.3643 38.5012 74.5511 38.6267 74.6267C39.2378 74.9952 40.0432 75.0283 40.7349 75.0764C41.7135 75.1445 42.7493 75.1832 43.6942 74.8757C44.4009 74.6458 45.0829 74.2887 45.6719 73.8361C45.8782 73.6776 46.0617 73.6032 46.0878 73.9425C46.1494 74.743 44.5996 75.0399 44.0835 75.1683C42.678 75.5178 41.2482 75.5188 39.8114 75.5188C39.5704 75.5188 38.8079 75.6458 39.1489 75.1634C39.3111 74.9339 39.606 74.8174 39.8549 74.7161C40.373 74.5053 40.9147 74.3414 41.4554 74.2012C42.0371 74.0503 42.6251 73.9328 43.2204 73.8506C43.4214 73.8229 43.7032 73.7622 43.9143 73.7877C44.0481 73.804 44.0009 74.0863 43.9892 74.1649C43.9259 74.5907 43.6949 74.9239 43.3993 75.2287C42.9113 75.7319 42.2661 76.019 41.5908 76.1765C41.1335 76.2831 40.6068 76.2371 40.1643 76.3892C39.9079 76.4774 40.4549 76.7667 40.4859 76.7833C41.0777 77.1006 41.7166 77.3301 42.3862 77.3998C42.9145 77.4549 43.518 77.4799 44.0545 77.4288C44.2162 77.4134 44.4078 77.3656 44.5211 77.2403C44.5456 77.2131 44.7106 76.9955 44.5985 76.9985C44.3351 77.0056 44.0541 77.2263 43.8345 77.3466C43.5099 77.5244 43.1776 77.7022 42.8239 77.8157C42.5772 77.8948 42.2051 77.9798 41.9583 77.8495C41.6919 77.709 41.8711 77.2991 41.9922 77.129C42.373 76.5943 43.9058 76.0411 44.2068 76.9115C44.3869 77.4324 44.0693 78.0037 43.7644 78.4129C43.6055 78.626 43.4297 78.8187 43.1865 78.9327C42.9188 79.0582 43.2153 79.1657 43.3703 79.2204C44.2478 79.5301 45.6574 79.9268 45.6574 81.1038C45.6574 81.2296 45.2189 81.3856 45.1159 81.3939C44.824 81.4176 44.8144 81.109 44.6081 80.9684C44.469 80.8735 44.1867 80.7477 44.4776 80.6299C44.5952 80.5823 44.7118 80.5648 44.8354 80.5236" stroke="white" stroke-width="2" stroke-linecap="round"/>
<path d="M47.0112 73.2559C47.4702 73.1412 47.9778 72.5603 48.1597 72.1438C48.2636 71.9057 48.4474 71.608 48.4474 71.3411" stroke="white" stroke-width="2" stroke-linecap="round"/>
<path d="M21.2043 72.9512C21.3906 72.9325 21.2516 72.8206 21.3107 72.8206C21.6835 72.8206 22.0511 72.8641 22.4253 72.8641C22.763 72.8641 23.2249 72.908 23.5302 72.7336C23.6146 72.6853 23.4965 72.4893 23.5641 72.4386C23.651 72.3734 23.9574 72.4325 24.0524 72.4386C24.4207 72.4622 24.7857 72.4748 25.1549 72.4725C25.762 72.4685 26.3628 72.3854 26.9706 72.3854C27.8518 72.3854 28.7352 72.3419 29.6181 72.3419C30.111 72.3419 30.6049 72.333 31.0977 72.3443C31.4651 72.3528 31.7954 72.4104 32.1519 72.2984C32.6174 72.1521 33.0737 71.9543 33.5396 71.8197C34.5031 71.5412 35.5744 71.4513 36.5715 71.3651C36.6028 71.3624 37.0227 71.2783 36.9897 71.399C36.9017 71.7219 36.4593 71.8998 36.1919 72.0179C35.3461 72.3915 34.419 72.5058 33.5106 72.6272C32.3112 72.7874 31.1075 72.9129 29.9082 73.0721C29.5435 73.1205 29.1882 73.2231 28.8202 73.2461C28.3499 73.2755 27.8745 73.2724 27.4034 73.2897C26.6288 73.3181 25.8575 73.3428 25.0824 73.3428C24.7283 73.3428 24.2586 73.3385 23.9267 73.4758C23.8316 73.5152 23.5414 73.568 23.5544 73.691C23.5698 73.8374 23.831 73.8991 23.9316 73.9279C24.8784 74.1992 25.8937 74.233 26.8715 74.2471C28.0341 74.2638 29.2083 74.2019 30.3579 74.0198C31.1014 73.9021 31.8209 73.686 32.558 73.5435C33.3518 73.3901 34.1822 73.4212 34.9854 73.4565C35.801 73.4923 36.5918 73.5779 37.379 73.7974C37.4421 73.815 38.1669 74.0348 38.0608 74.0803C37.9078 74.1458 37.6872 74.134 37.5289 74.1455C36.8939 74.1918 36.2602 74.2296 35.6237 74.2471C33.9979 74.2919 32.3816 74.4743 30.7544 74.4743C29.7144 74.4743 28.6878 74.5111 27.65 74.5831C27.2066 74.6139 26.7621 74.6049 26.3179 74.6049C26.0966 74.6049 25.7816 74.6736 25.7739 74.9531C25.7526 75.7195 27.0859 76.0415 27.6355 76.1668C28.5431 76.3736 29.5436 76.3727 30.4691 76.3263C31.5992 76.2697 32.6491 75.9291 33.7524 75.7243C35.0682 75.4801 36.3873 75.4849 37.7127 75.63C38.1317 75.6759 38.5394 75.7537 38.9457 75.8645C39.0157 75.8836 38.9717 75.9061 38.9167 75.9298C38.5831 76.0733 38.2167 76.1651 37.8674 76.2586C36.3597 76.6622 34.8283 76.8306 33.2689 76.7712C32.2632 76.7329 31.2431 76.6218 30.237 76.6527C29.6976 76.6693 29.1647 76.7583 28.6268 76.7833C28.2487 76.8009 27.846 76.7906 27.4711 76.8341C27.1075 76.8762 27.1431 77.0395 27.3502 77.3128C28.1138 78.32 29.8279 78.1228 30.9212 78.1324C32.5166 78.1464 34.042 78.0441 35.5826 77.6102C35.9847 77.4969 36.378 77.4737 36.7939 77.4554C37.3701 77.4301 38.0056 77.3664 38.5734 77.4965C38.6087 77.5046 39.0812 77.6339 39.0182 77.7044C38.8738 77.8662 38.5926 77.9456 38.3993 78.0188C37.6527 78.3014 36.7905 78.4211 36.0904 78.8045C35.8271 78.9487 35.5432 79.0136 35.2611 79.1116C34.8679 79.2481 34.4867 79.4173 34.0885 79.5395C33.6746 79.6665 33.2766 79.7876 32.8748 79.9505C32.7245 80.0115 32.5731 80.0532 32.4178 80.098C32.3409 80.1202 32.1265 80.1274 32.1905 80.1754C32.355 80.2987 32.9347 80.2176 33.119 80.2092C33.7184 80.182 34.277 80.0131 34.8355 79.803C35.8567 79.419 36.9253 79.1164 37.9302 78.6957C38.3364 78.5257 38.7907 78.2986 39.2358 78.2629C39.2992 78.2579 39.4093 78.2356 39.3615 78.3355C39.2544 78.5596 38.962 78.6768 38.7329 78.7199C38.4094 78.7808 38.0729 78.7618 37.7465 78.7489C37.2233 78.7282 36.6984 78.7392 36.175 78.7392C34.9138 78.7392 33.5365 78.6312 32.338 79.1067C31.7896 79.3244 31.2342 79.523 30.694 79.7619C30.221 79.9711 29.6822 80.0013 29.1684 80.0013C28.6618 80.0013 28.2943 79.926 27.8966 79.6C27.545 79.3116 26.9418 78.9207 26.799 78.4515C26.7282 78.2189 26.8755 78.056 26.9489 77.8543C26.9854 77.7539 27.1536 78.0527 27.1616 78.0719C27.2874 78.3723 27.308 78.7479 27.2874 79.068C27.2694 79.3474 27.1748 79.6075 27.123 79.8804C27.0771 80.1216 27.0528 80.3477 26.915 80.5574C26.7659 80.7845 26.4223 81.1378 26.3856 81.4133C26.3717 81.5172 26.3355 81.8201 26.4073 81.892C26.4587 81.9434 26.5869 81.9139 26.6515 81.9186C27.0664 81.9482 27.468 82.0313 27.887 81.9742C28.4104 81.9028 28.9316 81.6967 29.444 81.568C29.8336 81.4701 30.1709 81.3428 30.5175 81.1425C31.1044 80.8033 31.783 80.6427 32.3356 80.2455C32.7309 79.9614 31.8321 80.1741 31.7094 80.1995C30.8394 80.3801 30.0147 80.5264 29.12 80.5574C28.6786 80.5727 28.2367 80.567 27.7951 80.567C27.6709 80.567 27.486 80.6012 27.3647 80.5574C27.2354 80.5107 27.2142 80.3471 27.21 80.2286C27.2078 80.1673 27.2254 80.527 27.2318 80.5864C27.2432 80.6934 27.1838 81.2198 27.2777 81.2198C27.5052 81.2198 27.6805 80.9717 27.9063 80.9152" stroke="white" stroke-width="2" stroke-linecap="round"/>
<g style="mix-blend-mode:darken">
<path d="M116.55 67.5H116.15C115.317 67.5 114.683 67.3167 114.25 66.95C113.817 66.55 113.6 66.1 113.6 65.6C113.6 65.2 113.783 64.4167 114.15 63.25C114.55 62.1833 114.75 61.0167 114.75 59.75L114.8 58.75V57.75L114.85 57.25V56.3L114.9 54.3V46.65C114.867 46.4833 114.85 46.3333 114.85 46.2C114.85 46.0333 114.85 45.8667 114.85 45.7C114.85 45.5333 114.833 45.2167 114.8 44.75C114.767 44.25 114.717 43.7167 114.65 43.15C114.617 42.55 114.567 41.9833 114.5 41.45C114.467 40.8833 114.417 40.4833 114.35 40.25C114.283 39.9833 114.233 39.7667 114.2 39.6C114.167 39.4333 114.15 39.3 114.15 39.2C114.15 38.5667 114.6 38.1833 115.5 38.05C116.267 37.8833 117.283 37.7667 118.55 37.7C119.817 37.6 121.317 37.55 123.05 37.55H124.6C125.967 37.55 127.25 37.7167 128.45 38.05C129.65 38.3833 130.683 38.9 131.55 39.6C132.45 40.3 133.15 41.1833 133.65 42.25C134.183 43.3167 134.45 44.5667 134.45 46V46.55C134.45 48.3167 133.967 49.95 133 51.45C132.033 52.9167 130.75 54 129.15 54.7C128.75 54.9 128.233 55.1 127.6 55.3C127 55.4667 126.3 55.6333 125.5 55.8C123.867 56.2 122.467 56.7667 121.3 57.5C120.167 58.2333 119.6 59.2833 119.6 60.65L120.2 64.35C120.2 65.1833 119.85 65.9167 119.15 66.55C118.483 67.1833 117.617 67.5 116.55 67.5ZM119.35 49.25V51.9C119.35 52.4333 119.517 52.8333 119.85 53.1C120.183 53.3667 120.783 53.5 121.65 53.5H123C124.9 53.5 126.433 52.9167 127.6 51.75C128.8 50.55 129.4 48.9833 129.4 47.05V46.1C129.4 44.3667 128.85 42.9833 127.75 41.95C126.65 40.9167 125.067 40.4 123 40.4H122.4C122.267 40.4333 122.15 40.45 122.05 40.45C121.983 40.45 121.917 40.45 121.85 40.45C120.683 40.45 119.967 40.75 119.7 41.35C119.5 41.7833 119.4 43.7667 119.4 47.3V48.6L119.35 49.25ZM142.274 68H141.174C140.574 68 140.058 67.8333 139.624 67.5C139.191 67.1333 138.974 66.7333 138.974 66.3C138.974 66 139.108 65.4167 139.374 64.55C139.608 63.85 139.724 63.1667 139.724 62.5L139.824 60.85V52.4C139.758 51.5667 139.641 50.9167 139.474 50.45L139.274 50C138.974 49.2333 138.824 48.8333 138.824 48.8V48.35C138.824 47.5167 139.691 47.1 141.424 47.1H142.174C142.708 47.1 143.108 47.15 143.374 47.25C143.641 47.35 143.824 47.5667 143.924 47.9C144.058 48.2333 144.124 48.7333 144.124 49.4C144.158 50.0667 144.174 50.9667 144.174 52.1V57L144.324 60.05C144.324 61.75 144.674 63.2 145.374 64.4C145.641 64.9333 145.774 65.4667 145.774 66C145.774 66.6 145.441 67.0833 144.774 67.45C144.108 67.8167 143.274 68 142.274 68ZM141.924 37.85H142.674C143.274 37.85 143.791 38.0333 144.224 38.4C144.691 38.7667 144.924 39.3167 144.924 40.05V40.55C144.924 41.15 144.724 41.6833 144.324 42.15C143.958 42.6167 143.458 42.85 142.824 42.85L142.424 42.9H141.724C141.591 42.8667 141.374 42.85 141.074 42.85C140.808 42.85 140.491 42.6833 140.124 42.35C139.791 41.9833 139.624 41.5833 139.624 41.15L139.524 40.45V40.35L139.624 39.65C139.624 39.3167 139.808 38.9333 140.174 38.5C140.541 38.0667 141.124 37.85 141.924 37.85ZM166.88 48C166.88 48.9667 165.197 51.7833 161.83 56.45C158.463 61.1833 156.78 63.75 156.78 64.15C156.78 64.6833 157.613 64.95 159.28 64.95C160.947 64.95 162.297 64.8 163.33 64.5L166.18 63.7C166.98 63.7 167.38 64.2333 167.38 65.3V65.8C167.38 67.2333 166.013 67.95 163.28 67.95H158.28C156.213 67.95 154.63 67.95 153.53 67.95C152.43 67.9167 151.797 67.8833 151.63 67.85C150.863 67.6833 150.48 67.3333 150.48 66.8V66.35C150.48 65.5167 152.197 62.7333 155.63 58C159.03 53.2333 160.73 50.65 160.73 50.25C160.73 49.8167 159.663 49.6 157.53 49.6C156.497 49.6 155.397 49.75 154.23 50.05C153.097 50.35 152.38 50.5 152.08 50.5C151.213 50.5 150.78 50.0333 150.78 49.1C150.78 48.1333 150.98 47.45 151.38 47.05C151.78 46.65 152.613 46.45 153.88 46.45L154.43 46.5H160.63L163.38 46.6C164.98 46.6 165.947 46.7 166.28 46.9C166.68 47.1333 166.88 47.5 166.88 48ZM187.974 48C187.974 48.9667 186.29 51.7833 182.924 56.45C179.557 61.1833 177.874 63.75 177.874 64.15C177.874 64.6833 178.707 64.95 180.374 64.95C182.04 64.95 183.39 64.8 184.424 64.5L187.274 63.7C188.074 63.7 188.474 64.2333 188.474 65.3V65.8C188.474 67.2333 187.107 67.95 184.374 67.95H179.374C177.307 67.95 175.724 67.95 174.624 67.95C173.524 67.9167 172.89 67.8833 172.724 67.85C171.957 67.6833 171.574 67.3333 171.574 66.8V66.35C171.574 65.5167 173.29 62.7333 176.724 58C180.124 53.2333 181.824 50.65 181.824 50.25C181.824 49.8167 180.757 49.6 178.624 49.6C177.59 49.6 176.49 49.75 175.324 50.05C174.19 50.35 173.474 50.5 173.174 50.5C172.307 50.5 171.874 50.0333 171.874 49.1C171.874 48.1333 172.074 47.45 172.474 47.05C172.874 46.65 173.707 46.45 174.974 46.45L175.524 46.5H181.724L184.474 46.6C186.074 46.6 187.04 46.7 187.374 46.9C187.774 47.1333 187.974 47.5 187.974 48ZM201.718 68.15C200.651 68.15 199.601 67.9833 198.568 67.65C197.534 67.2833 196.618 66.7833 195.818 66.15C195.051 65.4833 194.418 64.6833 193.918 63.75C193.451 62.8167 193.218 61.7667 193.218 60.6V59.95C193.218 57.8167 194.301 55.6833 196.468 53.55C197.634 52.3167 198.218 51.45 198.218 50.95C198.218 50.75 197.951 50 197.418 48.7C196.884 47.3333 196.618 46.2 196.618 45.3C196.618 44.4333 196.768 43.6 197.068 42.8C197.401 42 197.851 41.3 198.418 40.7C199.018 40.1 199.718 39.6333 200.518 39.3C201.351 38.9333 202.268 38.75 203.268 38.75H203.868C205.468 38.75 206.768 39.3 207.768 40.4C208.801 41.5 209.318 42.8667 209.318 44.5C209.318 44.9667 209.001 46.4167 208.368 48.85C208.068 50.1167 207.834 51.15 207.668 51.95C207.501 52.75 207.418 53.3333 207.418 53.7C207.418 54.4333 207.768 55.0167 208.468 55.45C209.201 55.85 210.051 56.05 211.018 56.05C211.284 56.05 211.568 55.85 211.868 55.45C213.101 53.9167 214.401 53.15 215.768 53.15C216.334 53.15 216.618 53.5167 216.618 54.25C216.618 54.4167 216.268 55.35 215.568 57.05C214.834 58.7167 214.468 60.05 214.468 61.05C214.468 62.0167 214.934 63.1167 215.868 64.35C216.834 65.6167 217.318 66.3167 217.318 66.45C217.318 66.85 216.901 67.05 216.068 67.05L214.868 66.9L214.418 66.8C213.784 66.7 213.334 66.65 213.068 66.65C212.934 66.65 212.584 66.6833 212.018 66.75C211.451 66.7833 210.768 66.85 209.968 66.95C209.201 67.05 208.401 67.1667 207.568 67.3C206.734 67.4333 205.984 67.5833 205.318 67.75C203.918 68.0167 202.718 68.15 201.718 68.15ZM202.518 65.1H202.868C203.434 65.1 204.001 65.0167 204.568 64.85C205.134 64.6833 205.651 64.4833 206.118 64.25C206.618 63.9833 207.018 63.7 207.318 63.4C207.618 63.1 207.768 62.8333 207.768 62.6V62.45L203.768 57.25C202.101 55.0833 201.201 54 201.068 54H200.818C200.551 54 200.218 54.1833 199.818 54.55C199.418 54.8833 199.034 55.3 198.668 55.8C198.301 56.3 197.984 56.8333 197.718 57.4C197.451 57.9333 197.318 58.4167 197.318 58.85L197.268 59.2V59.75C197.268 60.45 197.401 61.1333 197.668 61.8C197.934 62.4333 198.301 63 198.768 63.5C199.234 63.9667 199.784 64.35 200.418 64.65C201.084 64.95 201.784 65.1 202.518 65.1ZM204.218 40.55H203.668C202.934 40.55 202.268 40.9 201.668 41.6C201.101 42.2667 200.818 42.9833 200.818 43.75V44.65C200.818 44.8167 200.818 44.95 200.818 45.05C200.851 45.1167 200.868 45.1833 200.868 45.25C200.868 45.5833 200.968 46 201.168 46.5C201.368 47 201.601 47.4833 201.868 47.95C202.134 48.4167 202.401 48.8167 202.668 49.15C202.934 49.4833 203.118 49.65 203.218 49.65H203.268C203.668 49.65 204.051 49.4667 204.418 49.1C204.818 48.7 205.168 48.2333 205.468 47.7C205.801 47.1667 206.068 46.6333 206.268 46.1C206.468 45.5667 206.568 45.1333 206.568 44.8L206.618 44.15V43.85C206.618 43.05 206.384 42.3 205.918 41.6C205.451 40.9 204.884 40.55 204.218 40.55ZM233.089 46.75C233.889 46.75 234.522 46.7 234.989 46.6C235.455 46.5 235.805 46.3 236.039 46C236.305 45.7 236.472 45.2667 236.539 44.7C236.639 44.1 236.689 43.3167 236.689 42.35C236.689 42.05 236.672 41.75 236.639 41.45C236.605 41.1167 236.555 40.8 236.489 40.5C236.355 39.9333 236.289 39.5167 236.289 39.25C236.289 38.6167 236.522 38.0833 236.989 37.65C237.489 37.1833 238.205 36.95 239.139 36.95H239.539C240.672 36.95 241.322 37.4667 241.489 38.5C241.622 39.1667 241.689 43.1833 241.689 50.55L241.639 53.15V56.75L241.689 58.7V59.7L241.739 60.15V61.85C241.739 62.2833 241.772 62.7 241.839 63.1C241.905 63.5 241.989 63.9 242.089 64.3C242.322 65 242.439 65.55 242.439 65.95C242.439 66.25 242.255 66.55 241.889 66.85C241.555 67.15 241.039 67.3 240.339 67.3C239.639 67.3 238.939 67.2 238.239 67C237.872 66.9 237.555 66.8333 237.289 66.8C237.055 66.7667 236.855 66.75 236.689 66.75C236.422 66.75 235.689 66.95 234.489 67.35C233.889 67.55 233.322 67.7167 232.789 67.85C232.289 67.95 231.805 68 231.339 68H230.839C228.372 68 226.472 67.1833 225.139 65.55C223.805 63.8833 223.139 61.7 223.139 59V57.9C223.139 56.4 223.355 54.9833 223.789 53.65C224.222 52.2833 224.855 51.1 225.689 50.1C226.555 49.0667 227.605 48.25 228.839 47.65C230.072 47.05 231.489 46.75 233.089 46.75ZM236.839 53.6C236.839 52.3333 236.522 51.3167 235.889 50.55C235.255 49.75 234.222 49.35 232.789 49.35H232.589L232.389 49.4C230.889 49.4 229.655 50.1 228.689 51.5C227.722 52.9 227.239 54.85 227.239 57.35V58.3C227.239 60.5333 227.672 62.25 228.539 63.45C229.439 64.65 230.539 65.25 231.839 65.25H232.039C233.039 65.25 233.839 65.05 234.439 64.65C235.072 64.25 235.555 63.7333 235.889 63.1C236.255 62.4667 236.505 61.75 236.639 60.95C236.772 60.1167 236.839 59.3 236.839 58.5L236.889 57.15V54.7L236.839 54.05V53.6ZM252.702 48.75C252.802 49.0833 252.868 49.8 252.902 50.9C252.935 52 252.952 53.5167 252.952 55.45C252.952 57.35 252.985 58.9167 253.052 60.15C253.152 61.3833 253.335 62.3667 253.602 63.1C253.868 63.8 254.235 64.2833 254.702 64.55C255.202 64.8167 255.835 64.95 256.602 64.95C258.502 64.95 259.868 64.2167 260.702 62.75C261.568 61.2833 262.002 58.7833 262.002 55.25L262.052 54.1V52.95C262.052 52.1833 262.002 51.4 261.902 50.6C261.835 50.2 261.785 49.9 261.752 49.7C261.718 49.4667 261.702 49.3167 261.702 49.25C261.702 48.5833 261.935 48.1167 262.402 47.85C262.902 47.55 263.602 47.4 264.502 47.4C265.435 47.4 266.018 47.75 266.252 48.45C266.452 48.8833 266.552 51.15 266.552 55.25C266.552 59.4167 266.768 62.3833 267.202 64.15L267.502 65.35V65.8C267.502 66.1667 267.285 66.5167 266.852 66.85C266.418 67.15 265.802 67.3 265.002 67.3C264.235 67.3 263.452 67.1167 262.652 66.75C261.952 66.4167 261.502 66.25 261.302 66.25C261.168 66.25 260.402 66.5 259.002 67C258.335 67.2667 257.702 67.4667 257.102 67.6C256.535 67.7333 255.985 67.8 255.452 67.8H254.852C253.685 67.8 252.635 67.5333 251.702 67C250.802 66.4667 250.102 65.7167 249.602 64.75C248.835 63.2833 248.452 60.2167 248.452 55.55C248.452 52.7833 248.352 51.0833 248.152 50.45C248.152 50.45 248.068 50.2 247.902 49.7C247.735 49.3333 247.652 49 247.652 48.7V48.25C247.652 47.45 248.385 47.05 249.852 47.05H250.402C251.602 47.05 252.368 47.6167 252.702 48.75ZM281.51 68.25H281.06C279.56 68.25 278.243 68 277.11 67.5C275.976 66.9667 275.01 66.25 274.21 65.35C273.443 64.45 272.86 63.3833 272.46 62.15C272.06 60.9167 271.86 59.5667 271.86 58.1V57.6C271.86 54.2333 272.776 51.55 274.61 49.55C276.443 47.55 279.026 46.55 282.36 46.55C284.16 46.55 285.626 46.9 286.76 47.6C287.893 48.3 288.46 49.1667 288.46 50.2C288.46 51.3 287.893 51.85 286.76 51.85C286.626 51.85 286.443 51.8 286.21 51.7C285.976 51.6 285.726 51.5 285.46 51.4C285.193 51.2667 284.943 51.1333 284.71 51C284.51 50.8667 284.36 50.75 284.26 50.65C283.16 50.1833 282.143 49.95 281.21 49.95C279.81 49.95 278.66 50.6 277.76 51.9C276.86 53.2 276.41 55.05 276.41 57.45C276.41 59.85 276.943 61.6667 278.01 62.9C279.076 64.1333 280.46 64.75 282.16 64.75C283.093 64.75 284.26 64.55 285.66 64.15C286.993 63.7167 287.81 63.5 288.11 63.5C288.676 63.5 288.96 63.8167 288.96 64.45C288.96 64.8833 288.726 65.3333 288.26 65.8C287.826 66.2333 287.243 66.6333 286.51 67C285.776 67.3667 284.976 67.6667 284.11 67.9C283.243 68.1333 282.376 68.25 281.51 68.25ZM300.261 53.6C300.461 53.6 300.794 53.4 301.261 53C301.727 52.6 302.211 52.1333 302.711 51.6C303.244 51.0333 303.744 50.5 304.211 50C304.711 49.4667 305.061 49.0667 305.261 48.8C305.727 48.1667 306.161 47.7167 306.561 47.45C306.961 47.15 307.561 47 308.361 47C309.994 47 310.811 47.3667 310.811 48.1C310.811 48.3 309.877 49.45 308.011 51.55C306.144 53.7167 305.211 55.25 305.211 56.15C305.211 56.5833 306.394 58.4333 308.761 61.7L312.261 66.6C312.261 67.2 311.611 67.5 310.311 67.5H309.811C309.311 67.5 308.894 67.4667 308.561 67.4C308.261 67.3333 307.944 67.15 307.611 66.85C307.277 66.5167 306.877 66.0167 306.411 65.35C305.977 64.65 305.377 63.7 304.611 62.5C302.977 59.9 301.811 58.6 301.111 58.6C300.611 58.6 300.177 58.9833 299.811 59.75C299.477 60.4833 299.311 61.4 299.311 62.5L299.411 63.65C299.444 63.95 299.461 64.2 299.461 64.4C299.461 64.5667 299.461 64.6833 299.461 64.75C299.461 66.4833 298.161 67.35 295.561 67.35C294.394 67.35 293.811 66.6 293.811 65.1L293.861 64.6C293.994 63.5333 294.094 62.5167 294.161 61.55C294.227 60.55 294.261 59.5833 294.261 58.65V54.45C294.294 54.1833 294.311 53.9333 294.311 53.7C294.311 53.4667 294.311 53.2167 294.311 52.95L294.361 51.5V47.15C294.361 43.9833 294.311 42.05 294.211 41.35C294.144 40.9833 294.077 40.6667 294.011 40.4C293.977 40.1 293.927 39.8167 293.861 39.55C293.694 38.9833 293.611 38.6667 293.611 38.6V38.1C293.611 37.8333 293.827 37.5667 294.261 37.3C294.727 37.0667 295.294 36.95 295.961 36.95H296.511C297.577 36.95 298.294 37.3833 298.661 38.25C298.894 38.85 299.011 40.3167 299.011 42.65V47.15L299.061 49.85C299.061 52.35 299.461 53.6 300.261 53.6Z" fill="#F08F34"/>
</g>
<defs>
<filter id="filter0_d_29_288" x="88" y="27" width="246" height="64" filterUnits="userSpaceOnUse" color-interpolation-filters="sRGB">
<feFlood flood-opacity="0" result="BackgroundImageFix"/>
<feColorMatrix in="SourceAlpha" type="matrix" values="0 0 0 0 0 0 0 0 0 0 0 0 0 0 0 0 0 0 127 0" result="hardAlpha"/>
<feOffset dy="4"/>
<feGaussianBlur stdDeviation="2"/>
<feComposite in2="hardAlpha" operator="out"/>
<feColorMatrix type="matrix" values="0 0 0 0 0 0 0 0 0 0 0 0 0 0 0 0 0 0 0.25 0"/>
<feBlend mode="normal" in2="BackgroundImageFix" result="effect1_dropShadow_29_288"/>
<feBlend mode="normal" in="SourceGraphic" in2="effect1_dropShadow_29_288" result="shape"/>
</filter>
</defs>
</svg>
